<svg width="344" height="54" viewBox="0 0 344 54" fill="none" xmlns="http://www.w3.org/2000/svg">
<path d="M2.94629 53.1338H27.7432C42.2067 53.1338 49.738 43.4671 49.8057 29.8681C49.8057 16.3369 41.3421 6.47229 27.7432 6.47229H2.94629V6.54C7.54525 11.139 7.54525 11.139 7.54525 29.7379V29.8681C7.54525 48.4671 7.54525 48.4671 2.94629 53.066V53.1338ZM17.2119 44.7327V14.8733H27.0765C35.1442 14.8733 40.0765 20.4723 40.139 29.8681C40.139 39.2015 35.1442 44.7327 27.0765 44.7327H17.2119Z" fill="#181717" fill-opacity="0.4"/>
<path d="M50.403 53.1338H80.0019L83.3352 38.4671H83.2675C78.403 46.3994 78.403 46.3994 64.8717 46.3994L82.1321 19.8057H53.7363L50.403 34.4671H50.4707C56.6009 26.6025 56.6009 26.5348 67.7363 26.5348L50.403 53.1338Z" fill="#181717" fill-opacity="0.4"/>
<path d="M106.395 53.1338H119.395V53.0661C114.863 48.4671 114.863 48.4671 114.863 36.5348V32.8004C114.863 23.4723 109.598 19.139 98.6655 19.139C94.5978 19.139 91.4624 19.9359 88.1967 21.6025L85.6655 31.4671H85.7332C88.7332 27.6025 91.9988 25.8681 96.4624 25.8681C101.931 25.8681 105.598 28.2015 105.931 32.8681H98.3947C88.8634 32.8681 83.5978 36.6702 83.5978 44.1338C83.5978 49.9984 87.4624 53.8004 94.5978 53.8004C100.332 53.8004 104.197 51.3994 106.395 47.6025V53.1338ZM92.3999 42.8004C92.3999 40.0661 94.3322 38.0661 98.1967 38.0661H105.999V39.6702C105.462 44.0036 101.931 47.0661 97.3947 47.0661C94.5301 47.0661 92.3999 45.3994 92.3999 42.8004Z" fill="#181717" fill-opacity="0.4"/>
<path d="M118.66 53.0661V53.1338H136.655V53.0661C132.124 48.4671 132.124 48.4671 132.124 36.5348V19.8057H118.66V19.8682C123.259 24.4723 123.259 24.4723 123.259 36.4046V36.4671C123.259 48.4671 123.259 48.4671 118.66 53.0661ZM116.457 11.139C116.457 13.738 118.457 15.738 121.061 15.738C123.66 15.738 125.66 13.738 125.66 11.139C125.66 8.54004 123.66 6.54004 121.061 6.54004C118.457 6.54004 116.457 8.54004 116.457 11.139ZM129.259 11.139C129.259 13.738 131.259 15.738 133.858 15.738C136.457 15.738 138.457 13.738 138.457 11.139C138.457 8.54004 136.457 6.54004 133.858 6.54004C131.259 6.54004 129.259 8.54004 129.259 11.139Z" fill="#181717" fill-opacity="0.4"/>
<path d="M135.924 53.0661V53.1338H153.919V53.0661C149.388 48.4671 149.388 48.4671 149.388 36.5348V35.4046C149.856 30.3369 152.987 26.7379 158.252 26.7379C161.252 26.7379 163.455 27.6702 164.919 31.2015H164.987L162.721 20.3369C161.388 19.5348 159.987 19.139 157.856 19.139C153.919 19.139 150.789 21.4723 148.924 25.5348V19.8056H135.924V19.8681C140.523 24.4723 140.523 24.4723 140.523 36.4046V36.4671C140.523 48.4671 140.523 48.4671 135.924 53.0661Z" fill="#181717" fill-opacity="0.4"/>
<path d="M0 50.1875H24.7969C39.2604 50.1875 46.7917 40.5208 46.8594 26.9218C46.8594 13.3906 38.3958 3.526 24.7969 3.526H0V3.59371C4.59896 8.19267 4.59896 8.19267 4.59896 26.7916V26.9218C4.59896 45.5208 4.59896 45.5208 0 50.1198V50.1875ZM14.2656 41.7864V11.927H24.1302C32.1979 11.927 37.1302 17.526 37.1927 26.9218C37.1927 36.2552 32.1979 41.7864 24.1302 41.7864H14.2656Z" fill="black"/>
<path d="M47.4568 50.1875H77.0557L80.3891 35.5208H80.3214C75.4568 43.4531 75.4568 43.4531 61.9255 43.4531L79.186 16.8594H50.7901L47.4568 31.5208H47.5245C53.6547 23.6562 53.6547 23.5885 64.7901 23.5885L47.4568 50.1875Z" fill="black"/>
<path d="M103.448 50.1875H116.448V50.1198C111.917 45.5208 111.917 45.5208 111.917 33.5885V29.8541C111.917 20.526 106.651 16.1927 95.7192 16.1927C91.6515 16.1927 88.5161 16.9896 85.2504 18.6562L82.7192 28.5208H82.7869C85.7869 24.6562 89.0525 22.9219 93.5161 22.9219C98.9848 22.9219 102.651 25.2552 102.985 29.9219H95.4484C85.9171 29.9219 80.6515 33.7239 80.6515 41.1875C80.6515 47.0521 84.5161 50.8541 91.6515 50.8541C97.3859 50.8541 101.25 48.4531 103.448 44.6562V50.1875ZM89.4536 39.8541C89.4536 37.1198 91.3859 35.1198 95.2504 35.1198H103.053V36.7239C102.516 41.0573 98.9848 44.1198 94.4484 44.1198C91.5838 44.1198 89.4536 42.4531 89.4536 39.8541Z" fill="black"/>
<path d="M115.714 50.1198V50.1875H133.709V50.1198C129.178 45.5208 129.178 45.5208 129.178 33.5885V16.8594H115.714V16.9219C120.313 21.526 120.313 21.526 120.313 33.4583V33.5208C120.313 45.5208 120.313 45.5208 115.714 50.1198ZM113.511 8.19271C113.511 10.7917 115.511 12.7917 118.115 12.7917C120.714 12.7917 122.714 10.7917 122.714 8.19271C122.714 5.59375 120.714 3.59375 118.115 3.59375C115.511 3.59375 113.511 5.59375 113.511 8.19271ZM126.313 8.19271C126.313 10.7917 128.313 12.7917 130.912 12.7917C133.511 12.7917 135.511 10.7917 135.511 8.19271C135.511 5.59375 133.511 3.59375 130.912 3.59375C128.313 3.59375 126.313 5.59375 126.313 8.19271Z" fill="black"/>
<path d="M132.978 50.1198V50.1875H150.973V50.1198C146.441 45.5208 146.441 45.5208 146.441 33.5885V32.4583C146.91 27.3906 150.04 23.7916 155.306 23.7916C158.306 23.7916 160.509 24.7239 161.973 28.2552H162.04L159.775 17.3906C158.441 16.5885 157.04 16.1927 154.91 16.1927C150.973 16.1927 147.842 18.526 145.978 22.5885V16.8594H132.978V16.9219C137.577 21.526 137.577 21.526 137.577 33.4583V33.5208C137.577 45.5208 137.577 45.5208 132.978 50.1198Z" fill="black"/>
<path d="M176.445 33.5208L182.648 50.1875H194.898L201.101 33.5885C209.904 8.11979 210.034 8.19792 215.831 3.66146V3.59375L194.445 3.53125V3.59375C196.966 5.72396 198.305 6.86458 198.305 9.59896C198.305 12.6562 196.497 17.849 192.378 28.9167L188.763 38.2604L185.101 28.9167C181.101 17.7188 179.31 12.5938 179.31 9.51562C179.31 6.86458 180.643 5.72396 183.101 3.59375V3.53125H161.7V3.59375C167.513 8.19792 167.513 8.19792 176.445 33.5208ZM209.966 50.1198V50.1875H227.966V50.1198C223.424 45.5156 223.424 45.5156 223.424 33.5885V16.8594H209.966V16.9219C214.57 21.526 214.57 21.526 214.57 33.4583V33.5208C214.57 45.5156 214.57 45.5156 209.966 50.1198ZM213.497 6.99479C213.497 10.1198 215.435 11.9896 218.966 11.9896C222.565 11.9896 224.435 10.1198 224.435 6.99479C224.435 3.92187 222.565 2 218.966 2C215.435 2 213.497 3.92187 213.497 6.99479ZM247.101 50.8542C252.424 50.8542 255.435 49.9948 258.43 48.1875L260.362 39.3177H260.299C258.023 42.9948 253.299 44.1146 248.893 44.1146C242.628 44.1146 238.836 41.2552 237.695 36.3229H262.82C262.888 35.4583 262.888 34.4479 262.888 33.5208C262.888 22.3281 256.555 16.1927 245.898 16.1927C234.7 16.1927 228.565 23.125 228.565 33.5208C228.565 43.6615 234.893 50.8542 247.101 50.8542ZM237.497 30.6562C238.232 25.7292 241.159 22.9271 245.768 22.9271C250.226 22.9271 253.154 25.3854 253.888 30.6562H237.497ZM273.289 50.1875H282.096L288.279 33.2604L294.482 50.1875H303.351L307.013 36.8594C311.294 21.3958 311.294 21.3958 316.159 16.9219V16.8594H297.945V16.9219C300.289 19.1823 301.476 20.3229 301.476 22.7969C301.476 25.3177 300.289 29.1302 297.945 36.8594L297.216 39.25L288.362 16.1927L279.362 39.3177L278.628 36.8594C276.284 29.1927 275.164 25.3177 275.164 22.8646C275.164 20.3229 276.284 19.1823 278.695 16.9219V16.8594H260.419V16.9219C265.284 21.3958 265.284 21.3958 269.628 36.8594L273.289 50.1875ZM328.154 50.8542C338.273 50.8542 342.471 46.6563 342.471 40.1302C342.471 34.3177 339.284 31.3906 332.674 29.9896L326.685 28.724C324.685 28.25 323.414 27.3854 323.414 25.599C323.414 23.9844 324.685 22.8646 328.023 22.8646C333.081 22.8646 337.674 24.4583 341.284 28.0521H341.351L339.674 18.9896C336.612 16.9896 333.148 16.1927 327.68 16.1927C318.878 16.1927 314.544 19.9167 314.544 25.8594C314.544 31.4531 317.753 34.599 324.148 35.9167L329.94 37.25C332.414 37.7865 333.685 38.8594 333.685 40.7812C333.685 42.9948 331.878 44.1823 328.607 44.1823C322.555 44.1823 317.555 42.2604 313.081 37.25H313.018L315.211 47.1927C318.747 49.8646 322.815 50.8542 328.154 50.8542Z" stroke="#181717" stroke-width="2.5"/>
</svg>
