<svg xmlns="http://www.w3.org/2000/svg" width="359.207" height="359.083" viewBox="0 0 359.207 359.083">
  <defs>
    <style>
      .cls-1 {
        fill: #dfc58f;
      }
    </style>
  </defs>
  <g id="dzair" transform="translate(0.001 0.032)">
    <path id="Tracé_1" data-name="Tracé 1" class="cls-1" d="M187.09,365.08C88.57,365.45,7.23,284.25,7.53,185,7.83,87.2,87.45,5.56,188,6c101.43.48,179.53,84.74,178.73,181C365.9,283,287,365.38,187.09,365.08ZM355.6,185.55c0-93-75.42-168.43-168.47-168.45C94.35,17.1,18.82,92.58,18.65,185.51S93.93,354,187.09,354.05A168.42,168.42,0,0,0,355.6,185.55Z" transform="translate(-7.53 -6.03)"/>
    <path id="Tracé_2" data-name="Tracé 2" class="cls-1" d="M182.6,189c2.83,13-3,23.09-11.17,32.67,6.74-2.33,11.44-6.48,14.08-12.93a1.55,1.55,0,0,1,.31,1.24,48.14,48.14,0,0,1-1.1,11.66,22.14,22.14,0,0,1-8,12.89,167.208,167.208,0,0,0-12.95,11.58c-6.26,6.2-8.22,13.55-6.12,22.06a67.87,67.87,0,0,0,15.14,29c.2.23.5.41.52.87a21.542,21.542,0,0,1-4.69-.53c-24.2-4-45.25-14.27-62.6-31.76-15.86-16-26.47-34.9-31.17-57a116,116,0,0,1,7.39-70,113.6,113.6,0,0,1,30.37-40.66c.78-.67,1.27-.7,2,.06,1.21,1.33,2.52,2.57,3.79,3.84s1.13,1.15-.09,2.18a105.781,105.781,0,0,0,33.55,180.72,43.119,43.119,0,0,0,5.87,1.72,28.23,28.23,0,0,1-8.33-13,35.06,35.06,0,0,1-.61-15.3c-1.72,1.59-3.69,7.71-3.49,11.57a21.79,21.79,0,0,0,4.07,11.34c-.47.21-.77-.08-1.06-.23-9.2-4.73-14.7-12.17-16.38-22.38-.16-1-.54-1.36-1.52-1.37-2.23,0-3.34.75-3.84,2.94a21.85,21.85,0,0,0-.22,6.8c.06.65.36,1.61-.13,1.91s-1.16-.48-1.7-.84c-7-4.65-12-10.86-14.09-19.11a35.21,35.21,0,0,1-.54-13.45,3.24,3.24,0,0,0-.52-2.26c-1.21-2-2.37-4-3.6-5.94a10,10,0,0,1-1.56-5.69c.07-3,.05-6.07.11-9.11a6.16,6.16,0,0,0-1.94-4.72c-3.25-3.24-3.58-5.91-1.2-9.85a58,58,0,0,1,14.07-15.4,132.58,132.58,0,0,1,14.57-10.09c1-.57,1.11-1,.39-1.93a28.077,28.077,0,0,1-2.07-3.08c-1.64-2.76-1.09-4.82,1.74-6.38s5.84-3.14,8.72-4.76c3.28-1.84,6.39-4,9.59-5.9,3.44-2.08,4.39-4.57,3.46-8.93a36,36,0,0,0-4.72-11.21A179.831,179.831,0,0,0,115.2,92c-.21-.2-.65-.32-.51-.71s.5-.18.76-.23a28.57,28.57,0,0,1,9.89-.26,16.65,16.65,0,0,1,12.13,8.3,40,40,0,0,1,4,9.21,5.76,5.76,0,0,0,1.12,2.22c.88,1,1.45,1,2.42.17a18.92,18.92,0,0,1,7.92-4.29,7,7,0,0,1,7.9,2.81,16.1,16.1,0,0,1,3,10.82c-2.63-2.19-5.16-4.25-8.5-1.76a6.58,6.58,0,0,0-2.38,6.4,18.34,18.34,0,0,1,6.68-3.13,28.449,28.449,0,0,1,6.87-1A1.75,1.75,0,0,0,168,120c2.48-3.54,6.21-4.43,10.18-4.64a36.68,36.68,0,0,1,10.57,1.14c1.36.33,1.45.23,1.14-1.17a8.66,8.66,0,0,0-7.85-6.65,8.49,8.49,0,0,0-8.38,5.22,2.6,2.6,0,0,1-.73,1.18A16.84,16.84,0,0,1,170.3,106c.14-3.85,3.88-6.86,8.53-7q4-.09,7.92,0c1.1,0,1.57-.25,1.54-1.45a5.7,5.7,0,0,0-.95-3.13,15,15,0,0,1,4.41-20.87,1.94,1.94,0,0,1,2.4,0A15,15,0,0,1,198.84,94a7.22,7.22,0,0,0-1.23,3.93c0,.87.3,1.19,1.2,1.17h7.55a11.08,11.08,0,0,1,5.64,1.4,6.69,6.69,0,0,1,3.62,6.53,16.76,16.76,0,0,1-2.78,8.06,4.39,4.39,0,0,1-.86-1.53A8.38,8.38,0,0,0,202.5,109a8.76,8.76,0,0,0-6.84,8.46c0,.88.44,1.17,1.15,1.4A136.93,136.93,0,0,1,210.09,124a1.45,1.45,0,0,1,.76.62c-2.1-.33-4.19-.68-6.29-1-5.71-.76-11.41-1.54-17.19-.87-4.18.49-7.25,2.36-8.5,6.59-.54,1.83-1,3.68-1.61,5.51a32.16,32.16,0,0,1-10.42,15.62,68.191,68.191,0,0,1-14,8.89c-.28.13-.57.24-.89.38,0-.55.41-.66.67-.88,3.45-2.84,6.84-5.78,10.42-8.45a10.42,10.42,0,0,0,4.35-7.77c.29-2.83.26-5.67.38-8.5,0-.6-.19-.86-.81-.88a15.831,15.831,0,0,0-4.76.4,4.54,4.54,0,0,0-3.68,5.25,24.9,24.9,0,0,1-.06,7.16,17.25,17.25,0,0,1-8.41,11.7c-2.55,1.57-5.15,3.06-7.58,4.83a31.137,31.137,0,0,0-2.94,2.46,3.49,3.49,0,0,0-.89,4.14,8.63,8.63,0,0,0,1.85,3.06c.84.84.65,1.3-.3,1.9-8.06,5.13-16,10.49-23.49,16.36a54,54,0,0,0-8.65,8.1,6.649,6.649,0,0,0-.83,1.16c-.72,1.45-.25,2.17,1.33,2.16l19.79-.18c.46,0,1-.14,1.26.42a1.29,1.29,0,0,1-.5,1.38c-1.61,1.66-3.3,3.13-5.81,3.22a4.67,4.67,0,0,0-2.71,1.19c-1.37,1.1-2.7,2.26-4,3.4a2,2,0,0,0-.72,1.34,23.46,23.46,0,0,0,.37,8.1c1.39,5.18,5,8.22,9.88,9.9a38.87,38.87,0,0,0,12.84,2,5.07,5.07,0,0,0,3.16-1,1.17,1.17,0,0,1,1.68.1,76.14,76.14,0,0,1,10.85,10.31l1.2,1.38c.23-.55-.09-.92-.23-1.29A24.26,24.26,0,0,0,146,231c-1.33-.88-1.55-.76-.34-2.15,1.52-1.73,1.48-1.77,3.74-1.09a104.87,104.87,0,0,1,16.11,6.39,4.47,4.47,0,0,0,1.07.41,34.2,34.2,0,0,0-11.71-7.25,38.81,38.81,0,0,0-6.1-1.69c-1.67-.33-1.8-.6-1.64-2.26.08-.87.47-.95,1.17-.83,1.85.3,3.7.62,5.56.83a62.609,62.609,0,0,0,12.09.22,1.08,1.08,0,0,0,.71-.32l-9-1.46c-3.27-.53-6.52-1.13-9.75-1.9a1.67,1.67,0,0,1-1.41-1.26,10.7,10.7,0,0,0-5.92-7c-1-.46-.43-.77,0-1.15a24.13,24.13,0,0,1,14.76-6.43,38.113,38.113,0,0,0,5-.48,11.65,11.65,0,0,0,6.09-3.37c.21-.22.35-.55.78-.6a6.08,6.08,0,0,1-1.51,3.81,17,17,0,0,1-4.75,4,9.49,9.49,0,0,0-3.13,2.57,2.2,2.2,0,0,0-.31,2.66,2.58,2.58,0,0,0,2.91,1.36c5.89-.88,10.18-4.38,14-8.64a35.94,35.94,0,0,0,8.16-15.8A.935.935,0,0,1,182.6,189Zm-62,63.69c.32-.81.55-1.43.82-2a6.5,6.5,0,0,1,5.48-4.09,15.652,15.652,0,0,1,3,.07,23.539,23.539,0,0,0,5.5-.14c3.5-.57,6.43-1.94,7.61-5.64.5-1.54.4-1.66-1.19-1.51-5.23.48-10-.63-14-4.19a13.58,13.58,0,0,0-5.43-2.95c-2.1-.56-3.34.11-4.16,2.12a17.61,17.61,0,0,0-1.17,9.51,21.85,21.85,0,0,0,3.57,8.86ZM109.88,210.5c-1.19,4.7,1.77,13.89,5.12,15.47v-.11c-.19-.48-.38-1-.58-1.43-1.26-3-2.4-6.07-2.17-9.36a4.22,4.22,0,0,0-2.34-4.53Z" transform="translate(-7.53 -6.03)"/>
    <path id="Tracé_3" data-name="Tracé 3" class="cls-1" d="M180.52,297.9a10.791,10.791,0,0,1-1-2.49c-1.6-4.44-3.08-8.9-3.26-13.68a38.17,38.17,0,0,1,9.84-27.37c4.58-5.23,9.61-10.06,14-15.44a74.231,74.231,0,0,0,5.87-8c5.25-8.47,5.66-17.25,1.65-26.32a65.5,65.5,0,0,0-6.27-11.29,32.56,32.56,0,0,1-6-14.46,22,22,0,0,1,1.83-12.4c.13-.29.27-.57.39-.87v-.4a37.111,37.111,0,0,1-13,3.16c4.28-3.2,8.72-5.78,11.78-10.33-5.54.88-10.72,2.15-15.95,3.44l7.09-6.57c-6.43.79-12.76,2-19.28,1.52.22-.54.71-.56,1.08-.72a40.19,40.19,0,0,0,8.56-5,14.06,14.06,0,0,0,5.38-8.25c1.42-6.3,4.86-10.88,11.08-13.07a27.3,27.3,0,0,1,11-1.37,54.51,54.51,0,0,1,19.24,5,3.57,3.57,0,0,0,3.59-.15A10.14,10.14,0,0,0,233,122.22a5.68,5.68,0,0,0-9.55-3.35c-.42.36-.83.73-1.38,1.22a12.17,12.17,0,0,1,.29-4.93,14.93,14.93,0,0,1,3.4-6.65,6.47,6.47,0,0,1,6.6-2.12,18.39,18.39,0,0,1,8.35,4.23c1.22,1.07,1.84,1,2.82-.33a5.73,5.73,0,0,0,.9-1.94,44.68,44.68,0,0,1,3.2-7.86c3.71-7.23,9.84-10.13,17.69-9.94a25.9,25.9,0,0,1,5.89.75c0,.44-.27.53-.46.7A210.531,210.531,0,0,0,244,121a69.539,69.539,0,0,0-6.39,10.12,17.47,17.47,0,0,0-1.71,5,4.44,4.44,0,0,0,1.67,4.66,106.68,106.68,0,0,1,17.15,17.36,84.27,84.27,0,0,1,10,16.58c.14.31.42.6.24,1.14a55.08,55.08,0,0,0-20.41-12.41,46.68,46.68,0,0,0-9.35-2,29.37,29.37,0,0,0-6.29-.14c3,1.23,6,2.46,8.94,3.92,10.75,5.37,19.9,12.6,26.43,22.82a56,56,0,0,1,8.89,32.54c0,.74-.13,1.48-.22,2.54-5-13.56-11.7-25.65-22.74-34.86a58,58,0,0,0-12-7.76,39.76,39.76,0,0,1,3.61,11.59,51.62,51.62,0,0,1-2.65,26.06A56.14,56.14,0,0,1,221,243.67a4.291,4.291,0,0,1-.48.36h-.23c-.13-.44.18-.75.33-1.1a65.329,65.329,0,0,0,5.12-17.4c1.21-9.77-1.48-18.52-7.27-26.35a143.607,143.607,0,0,0-14.3-16.29,4.543,4.543,0,0,0-.47-.38,10.08,10.08,0,0,0,.55,3.58c.95,3.66,3,6.77,5.06,9.86,2.27,3.43,4.88,6.66,6.32,10.57,5.68,15.37,3.45,29.48-6.93,42.22a45.941,45.941,0,0,1-6.9,6.83c-10.68,8.55-16.81,19.76-19.51,33-.59,2.89-1.14,5.79-1.46,8.73C180.77,297.55,180.82,297.78,180.52,297.9Zm19.2-125.77c5.05-1,9.77-2.6,13.38-6.42a12.09,12.09,0,0,0,3-12.3c-1.87-6.44-6.05-10.91-12.06-13.81a7.57,7.57,0,0,0-8.61.91,37.929,37.929,0,0,0-8.55,10.24c0,.05,0,.15,0,.24a2.36,2.36,0,0,0,1.18,0,9.56,9.56,0,0,0,5.17-2.57c.22-.21.43-.56.79-.42s.41.55.46.91a3.41,3.41,0,0,1-.4,2.08c-.41.82-.83,1.64-1.25,2.46,2.57-1.51,5-3.12,7.4-4.76.55-.37,1-.57,1.57,0a13.21,13.21,0,0,1,4,6.43c.9,3.76-.11,7.19-1.82,10.5a44.308,44.308,0,0,1-4.26,6.51Z" transform="translate(-7.53 -6.03)"/>
    <path id="Tracé_4" data-name="Tracé 4" class="cls-1" d="M197.77,298.39a58.3,58.3,0,0,1,11.67-12.6A190.082,190.082,0,0,0,232,265.88c7.76-8.13,14.86-16.73,19.78-26.93a2.369,2.369,0,0,1,.29-.38,7.27,7.27,0,0,1,.73,3,21.68,21.68,0,0,1-2.19,11.63,51.28,51.28,0,0,1-9.78,13.68,121.42,121.42,0,0,1-23.74,18.54,12.588,12.588,0,0,0-1.57,1.09,62.38,62.38,0,0,0,8.52-2.67,105,105,0,0,0,67.7-105.21c-1.6-26.57-12.06-49.19-30.55-68.18-.79-.8-.78-1.29,0-2,1.38-1.34,2.68-2.75,4-4.17.57-.63.95-.76,1.62-.08,16.27,16.51,26.94,36,31.42,58.81a110.2,110.2,0,0,1,1.76,31.73c-2.22,23.49-10.38,44.73-25.65,62.89-15.92,18.93-35.8,31.84-59.89,38a118.58,118.58,0,0,1-15.2,2.71C198.79,298.36,198.39,298.36,197.77,298.39Z" transform="translate(-7.53 -6.03)"/>
    <path id="Tracé_5" data-name="Tracé 5" class="cls-1" d="M255.6,256.1a63.13,63.13,0,0,0,1.21-21,54.219,54.219,0,0,0-3.15-12.66c-.53.36-.62,1-.84,1.43a223.2,223.2,0,0,1-11.44,22,89.71,89.71,0,0,1-27.53,29.27c-3.87,2.62-7.76,5.21-11.49,8-5.46,4.12-10.32,8.84-13.51,15,0,.06-.11.1-.37.32.11-1.17.18-2.17.32-3.15s.35-2.05.56-3.06c1.62-7.83,5.66-14.45,10.45-20.66,4.33-5.63,9.54-10.43,14.68-15.3,6.26-5.94,12.79-11.6,18.36-18.24a92.781,92.781,0,0,0,8.42-11.49c3.86-6.35,5.19-13.42,6-20.64a80.228,80.228,0,0,0,.44-10c.14,0,.24-.08.28,0,5.55,4.87,10.74,10.07,14.45,16.53q8.32,14.53,1.78,30A51.051,51.051,0,0,1,256,255.68,3.251,3.251,0,0,1,255.6,256.1Z" transform="translate(-7.53 -6.03)"/>
    <path id="Tracé_6" data-name="Tracé 6" class="cls-1" d="M271.94,295.35c-1.77-.6-3.43-1.21-5.13-1.71a3.54,3.54,0,0,1-1.87-1.19c-.9-1.07-1.87-2.08-2.77-3.15a1.77,1.77,0,0,1,.13-2.75c2.83-2.53,5.6-5.14,8.58-7.49s6.52-3.7,10.51-2.79a5.669,5.669,0,0,1,1.47.5A16.3,16.3,0,0,1,290.77,287a6,6,0,0,1-.31,3.53c-.22.64,0,.9.6,1.08,3.38,1,6.74,2,10.11,3,1.74.49,2.25,2.12,3.18,3.34.22.29-.06.69-.35.94l-4.39,3.9a1.6,1.6,0,0,1-1.68.22q-6.3-1.87-12.62-3.71c-.23-.07-.47-.11-.69-.2-.49-.19-.75.15-1,.45s.1.57.28.78c1.42,1.62,2.81,3.28,4.3,4.83,1.12,1.16,1.84,2.61,3,3.76a.93.93,0,0,1-.12,1.47q-1.87,1.68-3.77,3.33a1,1,0,0,1-1.65-.17,1,1,0,0,0-1.12-.44,1.89,1.89,0,0,1-2.07-.84c-3.7-4.2-7.42-8.37-11.13-12.56-1.48-1.68-1.44-2.23.19-3.79A1.784,1.784,0,0,1,271.94,295.35Zm10.26-16.71a.87.87,0,0,0-.63-.45,8.53,8.53,0,0,0-6.3.38,12.8,12.8,0,0,0-3.7,2.18c-2.56,2.22-5.08,4.49-7.64,6.72-1,.84.18,1.1.42,1.58.11.21.24.67.77.18q3.72-3.47,7.57-6.8C275.38,280.1,278.4,278.5,282.2,278.64Zm-1.85,11.88c2.1.83,2.28.79,3-.72a2.36,2.36,0,0,0-1.14-3.4c-.13,1.6-.14,1.6-1.86,4.12Zm-4,6c-.45-.15-.75-.27-1.05-.35-1-.29-2.75.38-3,1.37-.22.81.69,1.19,1.16,1.67Zm.88-8.85c.53.16.95.29,1.36.4,1.09.32,1.77-.17,1.73-1.28,0-.73-.3-1.16-1.12-.7a7,7,0,0,0-1.94,1.61Z" transform="translate(-7.53 -6.03)"/>
    <path id="Tracé_7" data-name="Tracé 7" class="cls-1" d="M50.14,267.25a2.06,2.06,0,0,1,1.23-1.84c2.92-1.57,5.81-3.18,8.73-4.74.65-.35.87-.6.43-1.33a51.482,51.482,0,0,1-2.64-4.83c-.37-.74-.7-.7-1.34-.34-2.44,1.37-4.91,2.67-7.35,4-.81.45-1.49.6-2-.39-.17-.35-.36-.4-.76-.27A1.9,1.9,0,0,1,44,256.4c-.74-1.41-1.54-2.79-2.28-4.2a1.83,1.83,0,0,1,.83-2.81Q56,242,69.46,234.71a1.8,1.8,0,0,1,2.62.52,51.158,51.158,0,0,1,4,6.48c.63,1.27.6,1.49-.62,2.16-3,1.67-6.08,3.36-9.15,5-.76.4-.83.71-.41,1.42.9,1.51,1.75,3,2.52,4.63.42.85.8.82,1.54.4,2.64-1.5,5.31-2.93,8-4.38,1.57-.86,2.25-.55,3.26.89a54.273,54.273,0,0,1,3.6,5.87c.7,1.34.64,1.58-.72,2.32q-13,7.1-25.95,14.18c-.87.48-1.62.78-2.16-.37-.2-.42-.46-.28-.78-.19a1.68,1.68,0,0,1-2.1-.72c-1-1.65-1.85-3.35-2.75-5a2.411,2.411,0,0,1-.22-.67Zm-4.41-11.46.26-.15c-.24-.49-.48-1-.74-1.45-.86-1.58-.83-1.69.77-2.56l24.39-13.31c.54-.29,1.15-.44.63-1.37s-.87-.6-1.48-.27q-11.13,6.1-22.28,12.17l-3.47,1.89c-.29.17-.71.26-.43.78C44.18,252.94,45,254.37,45.73,255.79Zm8.74,16c.14-.73-.28-1.19-.54-1.71-.73-1.4-.7-1.57.67-2.32,3-1.65,6-3.32,9-4.91.83-.43.84-.77.41-1.51-1.48-2.6-2.88-5.25-4.32-7.87-.14-.24-.18-.58-.74-.66,1.34,2.46,2.58,4.82,3.9,7.12.41.72.37,1-.39,1.44-3.28,1.73-6.53,3.53-9.78,5.31-.41.22-.91.35-.5,1,.82,1.41,1.55,2.78,2.29,4.14Zm25.61-18.23a7.16,7.16,0,0,0-.7-1.16c-.29-.32-.59.07-.84.2-2.67,1.44-5.31,2.93-8,4.34-.72.37-.62.7-.31,1.27s.52.77,1.17.4c2.68-1.51,5.39-3,8.08-4.44.23-.09.52-.17.6-.58Z" transform="translate(-7.53 -6.03)"/>
    <path id="Tracé_8" data-name="Tracé 8" class="cls-1" d="M232,330.35c-1.19-.35-2.36-.74-3.55-1.06a13.08,13.08,0,0,1-9.92-13,13.59,13.59,0,0,1,10.9-12.9c5.62-1.05,10.21.82,13.74,5.3.35.44.68.9,1,1.32a12.17,12.17,0,0,1,.61,15c-.22.32-.45.64-.76,1.06a5.41,5.41,0,0,0,2-.48,1.83,1.83,0,0,1,2.45,1.26c.22.57.28,1.27,1.14,1.34.16,0,.34.33.42.54.53,1.51,1.05,3,1.55,4.53.33,1-.43,1.23-1.12,1.48l-11.88,4.11L232,341.22c-.71.25-1.42.49-1.78-.51-.16-.47-.5-.22-.79-.17-1.52.26-2,0-2.54-1.46q-.69-1.9-1.35-3.84c-.58-1.67-.22-2.39,1.49-3,1.39-.5,2.79-1,4.18-1.46C231.46,330.68,231.8,330.66,232,330.35Zm4.67-13.89a5.3,5.3,0,0,0-1.47-3.37,1.56,1.56,0,0,0-1.27-.52,5.5,5.5,0,0,0-4.7,7,1.59,1.59,0,0,0,.85,1.07,4.65,4.65,0,0,0,6.57-4.18Zm-.51-10.71c-4.88-2.09-11,.07-14,4.66-2.72,4.27-2.36,10.48.76,13.22-3.99-9.08,3.21-18.73,13.22-17.88Zm11,22.79c-.17-.91-.34-1.33-1.22-1-1.63.64-3.31,1.16-5,1.73l-13,4.52c-.41.14-1.05.11-.77.89.45,1.23.88,2.47,1.31,3.72.08.23.14.47.47.36a.435.435,0,0,0,.31-.64c-.19-.52-.33-1.07-.55-1.58-.43-1-.1-1.48.87-1.79,1.59-.51,3.16-1.09,4.74-1.64,4-1.37,7.91-2.73,11.85-4.12.37-.1.99.01.96-.45ZM232,322.89a5.33,5.33,0,0,0,6-8.76C239.56,319.29,236.08,322.62,232,322.89Z" transform="translate(-7.53 -6.03)"/>
    <path id="Tracé_9" data-name="Tracé 9" class="cls-1" d="M168.65,287a32.33,32.33,0,0,1-3.41-10.91c-1.59-13.61,3.53-24.43,14-32.94,3.81-3.11,7.58-6.26,10.58-10.2a27.52,27.52,0,0,0,6-14.39,25.5,25.5,0,0,0-3.12-14.06,28.54,28.54,0,0,1-3.19-14,7.72,7.72,0,0,1,.45-2.46c.31,1.39.65,2.77.94,4.17a36.22,36.22,0,0,0,5.48,12.52c6.32,9.63,7.23,19.59,1.35,29.79a67.4,67.4,0,0,1-8,10.45c-4.44,5.09-9,10-12.79,15.69a49.44,49.44,0,0,0-8,21.07A50.7,50.7,0,0,0,168.65,287Z" transform="translate(-7.53 -6.03)"/>
    <path id="Tracé_10" data-name="Tracé 10" class="cls-1" d="M282,99.44c.45-1-.11-1.31-.63-1.76-1.37-1.17-2.67-2.41-4-3.62a2.14,2.14,0,0,1-.83-1.89c0-.25.09-.54-.11-.69-1.11-.79-.68-1.82-.49-2.82.46-2.58.92-5.16,1.14-7.86l-4,4.36c-.41.44-.8.9-1.22,1.33a1.7,1.7,0,0,1-2.55.17c-1.26-1.1-2.48-2.25-3.72-3.39a1.4,1.4,0,0,1-.56-1,2.37,2.37,0,0,0-.74-2c-.52-.56,0-1,.39-1.43L274.3,68.3l.73-.79c1.43-1.57,1.41-1.55,3.09-.31a11.13,11.13,0,0,0,1.62.82c.36-2,.75-3.94,1-5.86a3.59,3.59,0,0,1,1-2.09c.79-.79,1.54-1.63,2.27-2.47.59-.68,1.09-.66,1.84-.16,3.32,2.18,6,5.09,9,7.69a15.281,15.281,0,0,1,3.9,5.25,9.53,9.53,0,0,1,.6,6.88,9.88,9.88,0,0,1-11.69,6.9c-.94-.21-1.13.05-1.27.87q-.9,5.13-1.88,10.24C284.09,97.58,284.07,97.58,282,99.44Zm15.17-27.95v.72a9.44,9.44,0,0,1-8,9.2,9.13,9.13,0,0,1-4.11-.56c-.54-.17-.92-.22-.93.53a5,5,0,0,1-.18.94c-.74,4-1.43,8-2.25,12-.2,1-.23,1.61.9,2,.14-.72.27-1.38.39-2,.72-3.92,1.46-7.84,2.16-11.77.12-.67.33-.93,1-.57a6.19,6.19,0,0,0,1.12.39A8.23,8.23,0,0,0,298,75.5a5.88,5.88,0,0,0-.82-4.01Zm-19,4.93c0-.41-.39-.65-.75-.88s-.56.17-.75.38c-2.35,2.55-4.67,5.13-7.05,7.66-.53.56-.32.82.13,1.21s.73.73,1.31.07c2.14-2.42,4.34-4.79,6.53-7.16a2.38,2.38,0,0,0,.59-1.28Zm8.32-9.3c-.16.94-.3,1.76-.45,2.57-.21,1.13-.41,2.27-.64,3.4a.79.79,0,0,0,.67,1c.68.13.46-.49.52-.8.29-1.48.49-3,.83-4.45a1.32,1.32,0,0,0-.92-1.72Zm1.62,7.62c1.15-.69,2-1.26,2.09-2.33,0-.72-.72-1.11-1.42-1.47-.21,1.22-.41,2.35-.66,3.8Z" transform="translate(-7.53 -6.03)"/>
    <path id="Tracé_11" data-name="Tracé 11" class="cls-1" d="M111.31,79a15.85,15.85,0,0,1-3.08,8.92c-2.36,3.49-5.57,6.15-8.69,8.88-.9.8-1.77.6-2.7-.43L83.94,82l-6.33-7a2,2,0,0,1-.73-1.91c.13-.55-.35-.77-.62-1.08-.42-.5-.56-1-.05-1.48,3.55-3.22,7-6.63,11.47-8.55a12.91,12.91,0,0,1,13.06,1.33,29,29,0,0,1,7.61,7A14.58,14.58,0,0,1,111.31,79ZM94,71a10.06,10.06,0,0,0-5.45,2.35c-.5.37-.27.63,0,1q4.34,4.81,8.65,9.63c.38.43.64.59,1.13.09a13.08,13.08,0,0,0,2.69-3.63,6,6,0,0,0,.53-4.42C100.75,73.48,97,71,94,71Zm14.67,3.84c.53,5.41-1.91,9.59-5.35,13.38a66.22,66.22,0,0,1-5.68,5.31c-.67.59-.33.87.07,1.3s.65.86,1.3.23c1.48-1.46,3.08-2.79,4.56-4.24a22.34,22.34,0,0,0,4.68-6.32,11.21,11.21,0,0,0,.44-9.67ZM97.21,69.67a5.85,5.85,0,0,0-3-1.58c-3.24-.69-5.83.69-8.24,2.61-.39.31-1.09.56-.37,1.25.5.48.74,1.1,1.65.34C90.09,69.87,93.32,68.51,97.21,69.67Z" transform="translate(-7.53 -6.03)"/>
    <path id="Tracé_12" data-name="Tracé 12" class="cls-1" d="M137.27,300.67a12.14,12.14,0,0,1,9.62,5.56c1.13,1.64,2.42,3.17,2.85,5.2a10.19,10.19,0,0,1-.23,5.2c-.27.89-.8,1.17-1.62.86-2.36-.86-4.71-1.73-7-2.64-1.21-.48-1.54-1.2-1.29-2.58a1.7,1.7,0,0,0-.62-1.92c-.68-.42-1.32,0-1.87.39a3.82,3.82,0,0,0-1.45,2.54.74.74,0,0,0,.54.92c3.33,1.27,5.36,3.93,7.23,6.75,2.19,3.33,2.08,6.78.37,10.24a8.82,8.82,0,0,1-8.26,5.23,17.07,17.07,0,0,1-12.2-4.72,9.76,9.76,0,0,1-2.45-11,1.78,1.78,0,0,1,2.62-1.25c1.53.57,3,1.19,4.55,1.81a1.93,1.93,0,0,1,.88.59c.55.86.71,1.93,1.76,2.49.39.2.1.83,0,1.24-.16.77.19,1.13.89,1.25a2.32,2.32,0,0,0,2.5-3.66,6.14,6.14,0,0,0-2.52-1.76,11.16,11.16,0,0,1-6.08-7.6C123.94,307,129.27,300.7,137.27,300.67ZM129.1,317a9.77,9.77,0,0,1,1.64-10.06c2.39-3,5.73-3.94,9.55-3.64-3.61-1.91-8.9-.59-11.36,2.77S126.37,314.24,129.1,317Zm3.32,11.86c1.93,1,3.77.71,4.71-.65a3.28,3.28,0,0,0-.79-4.54c-.01,3.14-.7,4.08-3.92,5.18Zm-8.55.7c-.83-3.69-.82-4.09.36-7.4.28-.8-.43-.59-.71-.74s-.79-.6-1.13.17a8,8,0,0,0,1.48,7.96Zm17.65-18.34c-.08.46-.12.88-.22,1.3a.58.58,0,0,0,.46.79c.3.08.62.37.87.2s.14-.68,0-1a2,2,0,0,0-1.11-1.3Z" transform="translate(-7.53 -6.03)"/>
    <path id="Tracé_13" data-name="Tracé 13" class="cls-1" d="M327.55,199.65a13.91,13.91,0,1,1,9.8-4.229A13.86,13.86,0,0,1,327.55,199.65Z" transform="translate(-7.53 -6.03)"/>
    <path id="Tracé_14" data-name="Tracé 14" class="cls-1" d="M46.19,199.65a13.83,13.83,0,1,1,9.791-4.083A13.87,13.87,0,0,1,46.19,199.65Z" transform="translate(-7.53 -6.03)"/>
    <path id="Tracé_15" data-name="Tracé 15" class="cls-1" d="M203,58.18c-.76,0-1.52-.12-2.27-.09a2.23,2.23,0,0,1-2.44-1.82c-.59-1.85-.64-1.83-2.61-1.9-1.68-.06-3.36-.09-5-.19a1,1,0,0,0-1.13.75c-.94,2.49-.55,3-4.27,2.71-1.11-.08-2.23,0-3.35-.1-1.57-.07-2.14-.86-1.74-2.36.07-.25.48-.63-.12-.72-1.27-.2-.91-1-.61-1.68l4.3-10.14q4-9.37,7.94-18.73c.23-.53.33-1.19,1.13-1.23s1,.42,1.16,1c.11.34.37.36.66.38a2,2,0,0,1,1.85,1.59q5.33,15,10.68,30c.61,1.71-.06,2.62-1.86,2.62H203Zm-10.41-5.66c1.33.06,2.45.08,3.56.17.93.07.73-.38.53-.93s-.6-.43-1-.45c-1.75-.06-3.51-.1-5.27-.17-2.77-.1-2.79-.12-3.85,2.47a1.37,1.37,0,0,1-1.53,1c-.76-.06-1.52-.07-2.28-.09s-.79.55-.84,1c-.09.67.52.32.77.33,1.24.09,2.48.07,3.71.14a1,1,0,0,0,1.18-.7c.35-.92.42-2.23,1.21-2.63s2-.12,3-.13Zm-.15-15.35a64.812,64.812,0,0,1-2.52,7.47c-.11.33-.64.83.13,1,.54.14,1.1.18,1.34-.58.36-1.1.75-2.19,1.21-3.25a5.9,5.9,0,0,0-.18-4.64Zm13.05,19.2c.07-.42-.22-.83-.37-1.27,0-.16-.08-.45-.37-.29-1.28.69-2.65.13-4,.28-.33,0-.92-.32-.92.36,0,.43.16.94.84.93,1.6-.02,3.19-.01,4.8-.01ZM194,43c-.35.88-.55,1.48-.81,2s0,.7.56.73c.77,0,1.26,0,.81-1A15,15,0,0,1,194,43Z" transform="translate(-7.53 -6.03)"/>
    <path id="Tracé_16" data-name="Tracé 16" class="cls-1" d="M292.83,254.68c1.11-2.17,2-4.84,3.69-7.07.23-.31.71-.3,1.11-.37,3.15-.54,6.29-1.14,9.44-1.63.93-.15.9-.42.51-1.12-1.53-2.76-3-5.56-4.52-8.31a2.51,2.51,0,0,1-.06-2.5c.87-1.75,1.79-3.48,2.55-5.28.48-1.11,1.52-1.15,2.37-1.54.3-.13.36.35.5.56,3.64,5.54,6.56,11.47,9.75,17.26a3.24,3.24,0,0,0,1.52,1.43c3.63,1.74,7.24,3.52,10.87,5.28.8.38,1.46.86,1.39,1.87,0,.48.31.61.63.74.94.38,1,1,.58,1.83-.69,1.35-1.34,2.72-2,4.09-.38.81-.89.92-1.74.61-4.27-1.5-8.18-3.76-12.25-5.66a3.26,3.26,0,0,0-2.06-.28q-8.73,1.52-17.47,2.94c-.67.11-1.32.23-1.65-.7-.19-.52-.78-.18-1.18-.12C293.56,256.92,292.86,256.36,292.83,254.68Zm2-.05c2.26-.15,2.26-.15,3.14-1.95.28-.57.6-1.13.85-1.72a1.75,1.75,0,0,1,1.53-1.11c2.92-.46,5.82-1,8.72-1.51s2.88-.55,1.29-3.09a.726.726,0,0,1-.29-.09l.71,1.6-12.32,2.16c-.43.07-.88,0-1.11.54-.85,1.71-1.7,3.41-2.55,5.17ZM306.64,239a.77.77,0,0,0-.15-.87,2.4,2.4,0,0,1-.05-2.89c.64-1.1,1.14-2.28,1.7-3.43.18-.37.42-.82,0-1.07s-.46-1-1-1.38c-.87,1.76-1.7,3.46-2.53,5.17a.79.79,0,0,0,0,.8C305.28,236.5,305.93,237.69,306.64,239Z" transform="translate(-7.53 -6.03)"/>
    <path id="Tracé_17" data-name="Tracé 17" class="cls-1" d="M137.6,42.55l-5.23,1.84c-1.86.65-2.41.32-3.17-1.52s-1.49-3.6-2.12-5.45c-.49-1.43-.4-1.65,1-2.14l15.22-5.44c.82-.29,1.69-.65,1.8.77,0,.45.37.28.63.28,1.59,0,2.08.49,2,2.09q-.39,10.37-.8,20.73c-.06,1.32-.08,1.32,1.13.89L152,53.18c.43-.15,1-.36,1.2.08.39,1,1.15,1.07,2,1.2a1.33,1.33,0,0,1,1,1c.53,1.46,1.08,2.92,1.57,4.39a1.63,1.63,0,0,1-1.09,2.3c-5.47,2-10.95,4-16.45,5.9-1.38.48-2.24-.26-2.25-1.74,0-.55.08-1-.67-1.26-.54-.17-.32-.85-.3-1.3.21-6.07.45-12.14.67-18.21C137.63,44.58,137.6,43.63,137.6,42.55Zm2.09,23.83c.37-.12.75-.23,1.11-.36l13.29-4.75c2.14-.77,2.14-.77,1.18-3a1.86,1.86,0,0,1-1.4,1.17c-4.28,1.52-8.54,3.1-12.85,4.56C139.8,64.47,139.36,65.1,139.69,66.38ZM146,32.68c-.89,0-1.11.41-1.14,1.19-.12,3.91-.29,7.82-.43,11.74-.12,3.15-.24,6.31-.33,9.46,0,.27-.21.72.28.76a.64.64,0,0,0,.74-.73q0-.3,0-.6c.11-2.56.23-5.11.33-7.66C145.66,42.13,145.83,37.42,146,32.68Zm-8.21,7c.17-.75-.07-.91-.8-.64-1.89.72-3.8,1.42-5.73,2-.74.24-.66.59-.47,1.15s.4.77,1,.53c1.7-.66,3.43-1.26,5.17-1.84a1,1,0,0,0,.83-1.18Z" transform="translate(-7.53 -6.03)"/>
    <path id="Tracé_18" data-name="Tracé 18" class="cls-1" d="M185.88,71c0,.56-.32.75-.54,1a21.32,21.32,0,0,0-3.91,6.41,1.56,1.56,0,0,1-1.56,1.16A102.87,102.87,0,0,0,138.61,90.8a1.65,1.65,0,0,1-2.14-.26,18.78,18.78,0,0,0-6.1-3.48c-.39-.15-.86-.18-1.2-.64A114.2,114.2,0,0,1,185.88,71Z" transform="translate(-7.53 -6.03)"/>
    <path id="Tracé_19" data-name="Tracé 19" class="cls-1" d="M99.63,275.82a2.27,2.27,0,0,1,1.43.63c3,2.59,6,5.17,9,7.77.89.78,1.06,2.1,2.09,2.83.36.27.12.81-.2,1.18-.92,1-1.83,2.1-2.74,3.16a1,1,0,0,1-1.46.21c-1.68-1.11-2.48-1-3.78.5L93.88,303.68a1.73,1.73,0,0,0,.11,2.71c1.29,1.28,1.29,1.28.09,2.68-.7.82-1.42,1.62-2.11,2.45-.34.4-.74.69-1.24.45-2-.93-4-1.56-5.6-3.21-2.11-2.16-4.55-4-6.83-6-1.31-1.15-1.36-2-.25-3.25.81-.94,1.61-1.88,2.43-2.81,1-1.14,1.89-1.2,3.09-.22s1.19,1,2.22-.2c3.42-4,6.83-7.92,10.29-11.84.61-.69.57-1-.12-1.58-1.43-1.19-1.45-2-.25-3.42.81-.94,1.63-1.87,2.43-2.81A2,2,0,0,1,99.63,275.82ZM87.15,300.46c.24-.3.45-.57.67-.83,4-4.55,7.88-9.11,11.85-13.63.55-.62.54-.93-.09-1.49s-.92-.39-1.39.15c-4,4.6-7.93,9.17-11.89,13.76-.21.24-.69.49-.44.85a7.741,7.741,0,0,0,1.29,1.19Zm-3.62-1.64a12.7,12.7,0,0,0-1.2-1c-.41-.27-.55.16-.72.35-.71.77-1.39,1.55-2,2.35-.17.21-.53.36-.24.79.64.94,1.27,1,2,.16.58-.67,1.16-1.33,1.73-2a3.992,3.992,0,0,1,.43-.65ZM101,279c-.2-.56-.69-.79-1.06-1.12s-.56.07-.75.29c-.72.8-1.4,1.63-2.13,2.42-.36.38-.29.61.06,1,.62.61,1.11.95,1.74,0a20.724,20.724,0,0,1,1.62-1.91C100.67,279.41,100.83,279.2,101,279Z" transform="translate(-7.53 -6.03)"/>
    <path id="Tracé_20" data-name="Tracé 20" class="cls-1" d="M178.19,332.07c.12-3.79.22-7.59.39-11.38,0-.84-.21-1.18-1-1.11-1.54.13-2.83-.88-4.35-.95-.8,0-1.16-.9-1.14-1.75,0-1.47.07-2.95.14-4.43a1.77,1.77,0,0,1,2-1.81c6.15.17,12.29.39,18.44.61a1.74,1.74,0,0,1,1.78,1.62c.05.28-.13.75.32.78,1.33.1,1.22,1,1.18,1.91,0,1.08-.14,2.16-.13,3.23s-.47,1.37-1.4,1.33c-1.4-.06-2.8-.07-4.19-.18-.86-.07-1.07.24-1.09,1.05-.18,6.67-.39,13.34-.59,20-.05,1.4-.14,2.8-.15,4.2,0,.9-.39,1.34-1.29,1.3a27.468,27.468,0,0,1-4.9-.25c-1-.23-2.08-.55-3.14-.8s-1.16-1.14-1.15-2.11V332.07Zm2.15-.36H180c-.12,3.71-.21,7.42-.38,11.13,0,.91.31,1.16,1.1,1s.45-.77.46-1.18c.24-7.34.45-14.69.68-22,0-.59,0-1-.78-1s-.74.52-.74,1Zm4-18.56v.44h7.42c.29,0,.76.21.8-.25s-.53-.33-.81-.34q-7.11-.27-14.24-.46c-1.13,0-2.63-.57-3.31.2s-.21,2.29-.3,3.48c0,.57.07.87.75.87s.79-.32.79-.86.09-1.12.07-1.68c-.06-1.12.48-1.43,1.53-1.41,2.39.05,4.83.01,7.26.01Z" transform="translate(-7.53 -6.03)"/>
    <path id="Tracé_21" data-name="Tracé 21" class="cls-1" d="M245.17,63.37a24.3,24.3,0,0,1-1.28,3.37c-.95,2.45-1.38,2.62-3.84,1.63l-9.67-3.88c-1.44-.58-1.65-.95-1.4-2.54.05-.33,0-.51-.3-.65-.83-.36-.8-1-.49-1.69.46-1.06.91-2.13,1.3-3.22.32-.9.87-1,1.68-.72,2.13.76,2.13.74,3-1.31q2.5-6.285,5-12.55c.23-.57.39-1-.25-1.41a1,1,0,0,1-.43-.69c0-.92.27-1.93-.83-2.5-.08,0-.1-.32,0-.45.57-1.45,1.11-2.91,1.74-4.33.24-.54.82-.45,1.28-.27,3.52,1.4,7.09,2.7,10.51,4.31a18.341,18.341,0,0,1,2.84,2,1.49,1.49,0,0,1,.32,1.87c-.48,1.18-.94,2.37-1.43,3.55-.59,1.46-1.33,1.82-2.8,1.18-.87-.38-1.2-.19-1.54.67-1.81,4.64-3.68,9.27-5.56,13.88-.39,1-.4,1.56.77,1.85a1.82,1.82,0,0,1,1.38,1.9Zm-4.29-3.82c.51.05.48-.49.6-.8,1.87-4.62,3.71-9.25,5.57-13.87.31-.78.46-1.85,1-2.22s1.5.42,2.26.71c.54.21.85.23,1.06-.42a23.432,23.432,0,0,1,1-2.55c.25-.56.27-.89-.43-1.16s-.85,0-1,.54c-.1.3-.24.59-.36.88-.72,1.81-.73,1.82-2.49,1.11a3.76,3.76,0,0,1-.55-.23c-.61-.33-.86-.1-1.1.51q-3.21,8.13-6.51,16.2C239.59,59.24,240.16,59.33,240.88,59.55Zm-9.78,2.73c-.32-.09-.42,0-.46.2-.09.44.32.41.53.49,2.51,1,5,2,7.53,3,1,.4,2.27,1.45,3,1s1-2,1.45-3c.24-.52.26-.83-.38-1.09s-.92-.08-1.09.54c-.13.46-.38.88-.52,1.34-.31,1.05-.93,1.22-1.91.82-2.5-1-5-2-7.53-3Z" transform="translate(-7.53 -6.03)"/>
    <path id="Tracé_22" data-name="Tracé 22" class="cls-1" d="M201.2,72a113,113,0,0,1,32.18,9.15,111.1,111.1,0,0,1,15.1,8.27c1.24.8,1.24.8.17,1.73a20.069,20.069,0,0,0-3.49,3.93c-1,1.43-.65,1.67-2.42.54a103.21,103.21,0,0,0-24.22-11.31,100.2,100.2,0,0,0-11.94-3A1.79,1.79,0,0,1,205,80a34.39,34.39,0,0,0-3.26-6.78A1.94,1.94,0,0,1,201.2,72Z" transform="translate(-7.53 -6.03)"/>
    <path id="Tracé_23" data-name="Tracé 23" class="cls-1" d="M170.53,176.18c-3.49,1.34-6.72,2.57-9.94,3.83a52.93,52.93,0,0,0-9.22,4.61c-.23-.68.18-1.23.11-1.94a18.11,18.11,0,0,0-4.95,2.61,2.33,2.33,0,0,1,.76-1.56,15.719,15.719,0,0,1,2.92-2.47c.5-.35,1.32-.45,1.37-1.21a24.872,24.872,0,0,0,0-3.23c0-.43-.46-.37-.77-.34-.86.07-1.73.17-2.82.28a17.53,17.53,0,0,1,3.33-2.41,28.71,28.71,0,0,1,13.83-3.79,92.931,92.931,0,0,1,14.51.71c-1.3.14-2.6.25-3.89.43a12.84,12.84,0,0,0-6.32,2.34c-.43.33-1.08.67-1,1.27s.84.25,1.24.46Zm-13-.76v-1.19c0-.4,0-.55-.42-.6-.6-.07-2.37,1.11-2.38,1.68a9.25,9.25,0,0,0,.37,3.18,1,1,0,0,0,1,.86c.56,0,.82-.39,1-.87a8.83,8.83,0,0,0,.46-3.06Z" transform="translate(-7.53 -6.03)"/>
    <path id="Tracé_24" data-name="Tracé 24" class="cls-1" d="M130.94,196.22c1.26-1,2.52-2,3.8-3,2.49-1.94,5-3.87,7.5-5.78a1.9,1.9,0,0,1,2.84.55c.35.64-.3.74-.61.92-4,2.28-8,4.53-12,6.79-.47.26-1,.49-1.44.73Z" transform="translate(-7.53 -6.03)"/>
  </g>
</svg> 