<svg xmlns="http://www.w3.org/2000/svg" xmlns:xlink="http://www.w3.org/1999/xlink" width="962" height="962" viewBox="0 0 962 962">
  <defs>
  
     <style>
      .cls-1, .cls-2 {
        fill: #dfc58f;
      }

      .cls-1 {
        stroke: #707070;
      }

      .cls-3 {
        clip-path: url(#clip-path);
      }

      .cls-4 {
        clip-path: url(#clip-path-2);
      }
    </style> 
    <clipPath id="clip-path">
      <circle id="Ellipse_1" data-name="Ellipse 1" class="cls-1" cx="481" cy="481" r="481" transform="translate(108 -1758)"/>
    </clipPath>
    <clipPath id="clip-path-2">
      <rect id="Rectangle_1" data-name="Rectangle 1" class="cls-2" width="962" height="961.94"/>
    </clipPath>
  </defs>
  <g id="Groupe_de_masques_1" data-name="Groupe de masques 1" class="cls-3" transform="translate(-108 1758)">
    <g id="preview" class="cls-4" transform="translate(108 -1757.97)">
      <path id="Tracé_1" data-name="Tracé 1" class="cls-2" d="M962,481.433c-.4,264.256-216.169,483.388-486.613,480.486C210.808,959.078-.262,741.4,0,480.264.262,213.368,220.019-.322,481.433,0,740.853.322,962.1,212.642,962,481.433ZM480.607,933.6c250.068-.947,452.714-200.57,452.734-452.754,0-253.111-204.561-451.968-451.666-452.291-250.028-.343-449.087,202.948-453.1,444.431A453.137,453.137,0,0,0,480.607,933.6Z"/>
      <path id="Tracé_2" data-name="Tracé 2" class="cls-2" d="M409.384,756.21c-21.786-21.665-28.739-46.656-24.426-75.274-12.536,19.126-12.254,38.494-1.028,58.446-16.224-4.313-33.737-23.8-40.308-44.338-1.008-3.164-1.512-6.49-2.439-9.694s-.4-7.719-5.865-7.88-8.646,2.6-10.339,7.638c-2.439,7.215-.846,14.571-.343,23.519A81.785,81.785,0,0,1,285.68,666.3a80.232,80.232,0,0,1-5.441-43.411c.705-4.555.665-8.485-2.4-12.253-11.689-14.39-14.692-31.117-12.777-49.074a23.358,23.358,0,0,0-7.255-20.839c-8.062-7.739-5.28-16.425,0-24.628,12.777-20.154,30.432-35.612,49.619-49.4a284.837,284.837,0,0,1,24.326-16.123c5.562-3.2,5.4-5.683,2.116-10.682-9.553-14.612-8.727-16.466,6.792-25.172,13.4-7.517,26.784-15.156,39.884-23.2,15.015-9.23,17.211-15.559,11.568-32.891-8.061-25.011-23.983-45.527-39.763-65.923a500.014,500.014,0,0,0-56.914-62.477,48.208,48.208,0,0,1,59.272,20.537,126.848,126.848,0,0,1,10.7,24.85c2.439,7.276,6.308,10.359,12.979,3.87a18.137,18.137,0,0,1,3.285-2.318c9.311-5.764,19.327-11.568,29.828-4.776,10.823,7.034,13.987,18.763,14.531,32.448-7.759-5.24-14.914-9.392-22.975-3.648-6.046,4.252-8.4,10.077-6.59,18.138a67.334,67.334,0,0,1,35.41-10.3,7.9,7.9,0,0,0,5.462-2.015c14.108-16.446,32.427-12.858,50.384-10.762,3.144.363,7.074,3.184,9.13-.282,1.753-2.9-.927-6.409-2.6-9.291a23.2,23.2,0,0,0-36.277-4.817,102.1,102.1,0,0,0-7.235,9.009c-5.381-9.089-9.392-18.421-4.8-28.417,4.9-10.682,15.015-12.294,25.615-11.871,3.023.121,6.046,0,9.069,0,13.967,0,15.458-2.62,8.706-14.954-8.545-15.639-7.739-30.855,2.761-45.185,9.311-12.7,14.954-12.717,25.031-.846,10.9,12.818,12.435,29.727,4.031,44.943-7.86,14.349-6.852,16.022,9.633,16.123,2.68,0,5.381.141,8.062,0,10.4-.685,20.516,1.552,24.95,11.347,4.313,9.472,1.512,19.549-4.7,28.5-11.528-14.934-21.041-18.562-33.173-12.919a23.217,23.217,0,0,0-10.379,9.17c-6.228,10.319-4.776,14.934,6.207,19.166,8.3,3.2,16.546,6.51,24.608,10.52-16.123-1.874-31.9-3.87-48.006-3.567-21.827.443-29.163,5.119-34.261,26.1-7.941,33.858-30.8,54.012-61.026,69.571,1.29-4.9,4.877-6.046,7.376-8.263a58.065,58.065,0,0,1,7.779-6.369c14.632-8.707,20.315-21.827,18.3-38.171-.625-4.978,5.522-13.946-6.167-14.329-12.334-.383-20.154,5.885-18.884,16.566,2.842,25.273-7.759,42.524-29.646,54.193-6.752,3.587-12.737,8.626-18.945,13.181-6.872,5.038-8.182,12.092-3.225,18.38,5.421,6.953,1.592,9.291-3.608,12.6-22.935,14.551-45.467,29.707-66.225,47.281a183.174,183.174,0,0,0-14.954,14.914c-2.015,2.015-4.514,4.555-3.084,7.941s5.139,2.459,8.061,2.479h52.037a15.035,15.035,0,0,1-11.85,11.165c-11.528,2.58-22.169,7.679-24.447,19.368-2.882,14.229.423,28.679,12.757,38.111,17.03,12.979,36.74,16.889,57.66,12.092,4.031-.947,6.046.363,8.787,2.5,10.077,8.061,19.327,17.131,28.639,26.2-2.761-13.241-12.092-21.524-21.665-29.807-2.015-1.753-7.477-1.874-4.575-6.953,2.4-4.212,5.744-4.575,10.278-3.084,14.813,4.877,29.424,10.278,43.834,16.506-9.815-11.387-23.1-16.728-36.74-21.423a60.6,60.6,0,0,0-7.719-2.015c-2.6-.5-5.764-.161-4.9-4.353.947-4.575,4.313-2.015,6.449-1.753a223.866,223.866,0,0,0,45.366,1.834c-7.155-5.885-15.256-3.124-22.068-5.643-4.575-1.713-9.775-1.894-14.712-2.5-9.573-1.189-18.038-3.144-21.524-14.289-1.632-5.24-7.054-8.666-13.019-11.79a58.224,58.224,0,0,1,37.264-18.138c11.588-1.27,23.54-1.189,33.395-9.573-2.378,7.316-7.679,11.85-13.624,15.881-2.761,1.874-5.623,3.668-8.182,5.8-3.043,2.56-4.7,6.046-2.822,9.855,2.015,4.192,5.824,5.24,10.238,4.031A62.478,62.478,0,0,0,445.2,547.336a103.146,103.146,0,0,0,31.42-50.042c5.784,21.947,1.431,34.261-29.666,84.464,17.09-4.958,28.054-15.881,37.546-31.7.806,27.087-3.426,49.74-24.588,66.507-10.258,8.062-19.569,17.373-29.465,25.958-22.955,19.912-27.913,44.58-19.408,72.816A188.136,188.136,0,0,0,450.78,787a183.844,183.844,0,0,1-51.332-9.815C287.594,740.772,214.5,665.82,187.833,551.468c-24.185-104.235,1.33-198.474,73.884-278.586,7.195-7.941,15.216-15.135,22.975-22.572,9.271-8.888,11.266,3,16.123,6.046,6.207,3.849,1.834,6.53-1.572,9.553-54.6,48.369-87.226,108.83-96.617,181.162C185.072,583.089,270.061,714.733,401.06,755.5a13.845,13.845,0,0,0,8.324.705Zm-99.217-90.692c3.749-16.425,15.861-16.325,28.4-15.418a38.291,38.291,0,0,0,8.062-.121c9.553-1.35,18.36-4.192,22.955-13.785,1.733-3.648,2.741-7.336-3.728-6.772-15.236,1.37-28.074-3.93-39.582-13.664a35.63,35.63,0,0,0-11.528-5.865c-5.5-1.854-9.674.262-12.354,5.582-6.993,13.765-3.97,36.357,7.779,49.961Zm-15.922-73.259c-10.379-11.588-1.229-29.888-14.108-40.489C279.492,567.107,280.561,581.839,294.245,592.259Z"/>
      <path id="Tracé_3" data-name="Tracé 3" class="cls-2" d="M581.053,639.761c3.466-13.825,8.928-25.253,11.064-37.768,4.273-24.93,2.5-48.51-10.843-70.679-12.757-21.161-30.009-38.292-48.167-57.66,1.008,17.594,9.311,29.606,17.534,41.557,9.13,13.322,17.473,26.905,20.436,43.169,6.893,38.03-1.189,71.929-28.215,100.305-9.009,9.472-19.186,17.816-28.5,27.006-26.543,26.2-37.143,59.675-42.323,95.489a27.808,27.808,0,0,1-.705,2.741c-19.287-34.04-13.584-79.224,14.329-112.357,14.914-17.675,32.125-33.354,46.092-51.9,8.5-11.306,15.72-23.338,19.186-37.264,4.152-16.728.645-32.649-6.046-47.885a209.611,209.611,0,0,0-14.349-26.442c-21.141-33.7-22.774-42.323-13.422-79.426-10.077,3.063-19.569,7.155-31.279,7.376,9.23-9.029,20.859-13.886,27.671-25.9-13.987-.766-25.817,5.1-39.663,6.248l18.138-16.929c-17.675.867-32.911,6.832-49.86,3.648,7.679-4.514,14.894-7.82,21.1-12.8,7.255-5.8,13.463-12.354,15.357-21.665,6.933-34,34.12-42.323,62.114-40.308a131.481,131.481,0,0,1,47.261,12.556c6.973,3.345,12.092,1.471,17.07-2.9,8.868-7.7,10.52-17.755,8.062-28.417-2.2-9.23-13.241-13.664-21.826-9.492-2.378,1.149-4.555,2.741-7.195,4.353a33.273,33.273,0,0,1,2.358-15.015c6.53-19.912,19.872-24.89,38.151-14.551a34.923,34.923,0,0,1,6.711,4.373c7.276,6.772,10.923,3.043,13.644-4.313a178.443,178.443,0,0,1,6.631-16.808c10.54-22.713,26.2-32.246,51.11-30.916a49.437,49.437,0,0,0,21.5-3.426c19.892-7.86,40.086-14.934,59.8-23.237,6.55-2.781,11.1.2,14.994,3.1,4.333,3.2-.584,7.215-2.177,10.46-11.266,22.713-22.975,45.225-34.08,68.019-3.487,7.175-6.61,7.356-11.145,1.451-4.817-6.308-11.992-11.205-8.787-21.423,1.612-5.119-8.969-13.362-14.571-11.79-6.53,1.854-9.492-2.358-12.193-6.429-5.22-7.92-9.351-6.973-15.6-.544-24.305,25.071-48.369,50.384-67.555,79.668a110.712,110.712,0,0,0-7.84,13.987c-7.477,16.244-6.228,20.154,7.275,31.7a256.839,256.839,0,0,1,61.267,75.174c1.491,2.781,3.688,5.542,3.184,10.077-26.905-23.882-57.4-37.284-94.058-36.418,73.259,29.566,118.283,79.587,118.585,162.258-19.267-46.354-45.427-86.661-94.34-110.846a135.474,135.474,0,0,1,5.663,92.707A150.226,150.226,0,0,1,581.053,639.761Zm-76.705-241.6,10.7-7.094c13.4-8.807,19.751-6.288,23.963,9.573a34.624,34.624,0,0,1,.524,14.894c-2.015,12.415-10.2,21.544-17.01,32.992,12.415-2.721,23.056-6.288,32.246-13.342,13.846-10.6,18.481-26.825,12.092-43.109S548.3,364.6,532.14,357.689A17.614,17.614,0,0,0,514,359.825c-10.843,7.578-18.864,17.735-25.495,29.425,8.4,3,13.443-2.842,19.287-6.167C510.092,388.343,506.243,391.709,504.348,398.158ZM797.767,205.568c-5.038,0-7.537,1.451-8.989,4.333Q771.849,243.558,755,277.255c-1.149,2.3-1.512,4.756,1.229,6.046s3.386-1.512,4.152-3.043C772.716,255.751,784.929,231.224,797.767,205.568Zm-33.516,18.924-18.582,8.062c-1.552.665-3.386,1.391-2.64,3.426a3.527,3.527,0,0,0,4.8,2.439c6.469-2.842,14.148-4.273,16.425-13.967Z"/>
      <path id="Tracé_4" data-name="Tracé 4" class="cls-2" d="M567.55,757.117a261.818,261.818,0,0,0,79.386-36.942c63.948-43.814,105.807-103.53,120.761-179.53,19-96.637-5.542-182.331-72.191-255.489-2.318-2.539-7.82-4.8-6.046-8.061a38.716,38.716,0,0,1,12.092-13.181c3.124-2.136,5.4,2.822,7.578,5.059,40.832,42.2,68.341,92,79.184,149.581C810.182,535.063,777.452,634.5,689.259,714.23,643.873,755.222,589.84,779,529.057,787c-1.31.161-2.58.665-3.89.947s-2.6.423-5.885.947a148.21,148.21,0,0,1,31.6-34.261c40.307-31.057,77.229-65.52,104.538-109.092,3.124-4.958,5.925-10.077,9.573-16.405,4.454,22.169-3.446,39.4-15.1,55.362-19.71,26.986-45.709,46.958-73.38,65C573.516,751.413,569.707,752.34,567.55,757.117Z"/>
      <path id="Tracé_5" data-name="Tracé 5" class="cls-2" d="M653.506,512.934c63.222,50.384,64.21,110.422,22.169,157.341,6.268-30.432,5.139-58.748-6.389-87.447-9.17,17.9-17.493,34.6-26.2,51.09-22.653,42.867-55.483,76.141-96.355,101.837-19.71,12.395-37.567,26.905-51.977,49.074A91.619,91.619,0,0,1,506,744.742c14.108-27.308,35.491-48.571,57.62-69.228,25.474-23.822,51.674-46.978,70.417-77.008a120.338,120.338,0,0,0,18-58.789C652.418,531.374,655,523.232,653.506,512.934Z"/>
      <path id="Tracé_6" data-name="Tracé 6" class="cls-2" d="M342.957,149.138c.947-19.972,2.519-37.688,2.3-55.362,0-8.586,4.373-11.1,10.621-13.06s11.427,1.874,13.644,6.812c10.258,22.834,19.872,45.971,29.505,69.067,3.063,7.336-3.366,8.243-7.8,10.077-4.031,1.632-8.727,6.651-12.092-1.431-3.023-7.316-6.631-14.39-10.419-22.512a47.5,47.5,0,0,0-3.084,21.282c.383,6.872-1.653,11.044-8.384,13.967s-11.145,1.874-16.123-2.822c-5.8-5.442-12.233-10.258-19.63-16.385.846,9.472,5.038,16,8.062,22.774s2.479,10.843-5.26,13.765c-6.55,2.479-10.964,4.877-14.551-4.212-8.968-22.673-19.045-44.9-28.356-67.455-1.431-3.466-5.764-8.062.161-11.306,5.038-2.66,10.278-6.651,16.445-1.25,11.326,9.936,22.955,19.509,34.463,29.243Zm18.965-22.169c-3.265,6.429-1.653,13.362-2.64,19.952-1.35,9.109,2.156,20.879-11.75,24-1.108.262-2.64,1.37-2.015,2.842a4.434,4.434,0,0,0,2.862,2.459c5.159.161,11.568-.927,12.777-5.683a103.389,103.389,0,0,0,.766-43.572Zm34.261,31.984A6.651,6.651,0,0,0,393,153.37c-2.015,5.22-10.661,2.942-11.165,9.613a2.62,2.62,0,0,0,4.031,2.5c3.708-2.076,9.412-1.451,10.339-6.469ZM325.161,183.4c-3.446,2.781-9.069,2.459-11.427,6.893a2.9,2.9,0,0,0,3.285,3.789c4.031-1.391,9.371-1.512,11.387-6.389a3.648,3.648,0,0,0-3.245-4.293Z"/>
      <path id="Tracé_7" data-name="Tracé 7" class="cls-2" d="M715.862,808.63c5.139,6.933,10.238,13.1,14.491,19.811,2.156,3.386,8.727,6.651,1.512,12.092-6.631,4.958-13.443,8.626-19.63,1.29-9.936-11.75-18.763-24.426-27.994-36.76-.766-1.008-1.814-3-1.451-3.446,9.109-10.964-3.87-8.525-7.175-11.77-1.592-1.572-4.031-2.237-5.724-3.789-10.46-9.916-10.3-12.838,1.108-21.4a206.134,206.134,0,0,1,18.783-13.463c10.359-6.046,21.907-8.545,32.065-.766,10.52,8.062,19.408,18.28,15.76,33.254-1.129,4.615.242,6.046,3.829,7.3,6.248,2.318,12.314,5.22,18.723,6.973s10.48,5.744,11.246,11.649c.464,3.628-13.946,10.621-18.461,9.15-8.888-2.882-17.534-6.51-26.4-9.492C723.52,808.166,720.638,805.486,715.862,808.63Zm.967-56.431c-5.139-4.192-9.775-4.031-14.954-2.68-12.959,3.164-21.806,12.757-32.246,19.932-2.418,1.673-5.744,3.386-2.983,7.094,3.325,4.474,5.038-.443,6.973-1.753,13.443-8.948,24.406-22.25,43.21-22.512Zm-.625,19.287c-2.6,3.124-1.572,7.014-4.293,9.412-1.149,1.008-2.177,2.781.282,3.849s4.373,1.673,6.167-.766c3.305-4.373,3.144-8.344-2.157-12.415Zm-18.4,28.941c.786-3.346-1.149-3.366-2.721-3.648a7.5,7.5,0,0,0-8.061,4.6c-1.129,2.217,2.358,5.683,2.842,5.4a58.227,58.227,0,0,0,7.94-6.268Z"/>
      <path id="Tracé_8" data-name="Tracé 8" class="cls-2" d="M845.592,351.925c7.719-3.023,15.377-6.207,23.157-9.069,8.4-3.084,12.092.2,17.272,11.427,4.031,8.666-1.028,10.48-7.014,12.858-20.779,8.283-41.638,16.425-62.235,25.112-6.49,2.721-9.029,1.31-12.092-4.918-5.2-10.238-5.925-18.8,2.015-28.215a99.3,99.3,0,0,0,14.974-26.2C813.426,336.225,805.022,339.148,797,343c-6.288,2.963-10.077,1.894-11.992-4.877a37.781,37.781,0,0,0-2.741-6.449c-3.769-7.356-2.177-11.347,6.207-14.39,19.448-7.094,38.655-14.914,57.579-23.318,6.691-2.963,12.415-2.277,15.861,2.7,4.031,6.046,8.848,12.919,3.285,21.141-7.255,10.782-14.108,21.806-21.222,32.73Zm38.494,6.248c-.2-2.68-1.391-3.1-5.059-1.572-21.887,9.17-43.915,17.937-65.943,26.784-2.237.907-4.917,1.592-4.031,4.615,1.108,4.031,4.373,2.257,6.57,1.391q32.609-12.919,65.077-26.2C882.131,362.566,884.751,362.022,884.086,358.173ZM829.267,356.6l2.519,1.854c14.551-12.213,21.484-30.231,32.246-45.245,2.116-2.942.323-5.18-2.821-7.054l-30.432,47.019a25.264,25.264,0,0,0-1.512,3.426Zm2.015-38.03-40.005,16.123a3.265,3.265,0,0,0-2.136,4.736c1.108,2.56,3,1.854,4.978,1.048,10.44-4.273,20.94-8.364,31.319-12.8,2.983-1.189,5.28-3.749,5.784-9.109Z"/>
      <path id="Tracé_9" data-name="Tracé 9" class="cls-2" d="M140.311,330.159c-10.742-4.353-18.783-8.4-27.268-10.843-9.875-2.862-11.185-16.546-5.623-23.882a3.567,3.567,0,0,1,5.059-1.229c23.943,10.077,48.671,18.38,71.989,30.009,3.2,1.592,9.311,3.023,7.114,8.061-2.479,5.562-1.834,13.644-10.581,15.539-15.256,3.285-30.372,7.155-45.568,10.762-.423,4.232,3.487,3.708,5.462,4.615,7.255,3.366,15.035,5.663,22.169,9.291,9.331,4.756,10.44,13.422,3.628,21.484-2.842,3.346-5.905,2.217-9.069.947-21.927-8.868-43.754-18-65.842-26.482A11.83,11.83,0,0,1,84,355.15c.625-5.623,1.713-12.253,10.319-13.866C108.83,338.583,123.1,334.371,140.311,330.159Zm-20.98,22.532c4.575,5.361,9.15,4.031,13.584,3.063,14.954-3.346,29.828-7.074,44.862-10.077,7.82-1.532,8.062-8.062,10.359-13.241a2.338,2.338,0,0,0-1.612-3.184c-1.834-.685-3.648-.161-4.031,1.653-2.177,9.392-10.077,9.21-17.131,10.782C150.367,345.093,135.494,348.822,119.33,352.691ZM89.5,361.942c1.491,4.031,5.018,4.031,7.578,5.18,19.469,8.062,39.28,15.156,58.446,23.721,8.182,3.668,9.775-.262,11.77-6.167.786-2.358,1.733-4.877-.947-6.046-3.124-1.431-4.031,1.411-4.615,3.668-1.794,6.53-5.583,5.764-10.641,3.607-13.221-5.643-26.563-10.964-39.985-16.123C104.155,367,97.564,362.99,89.5,361.942Zm21.041-50.183-.967,2.64c12.092,4.353,23.54,10.742,36.962,11.729Z"/>
      <path id="Tracé_10" data-name="Tracé 10" class="cls-2" d="M215.887,690.166a49.084,49.084,0,0,0-5.683,3.265c-5.038,3.89-9.714,8.324-15.015,11.81-5.764,3.789-6.53,6.772-1.653,12.395,8.283,9.533,7.86,9.9,18.017,1.794a82.437,82.437,0,0,0,7.82-6.328c6.046-6.046,10.621-5.784,16.365,1.088,10.923,13.1,11.266,12.717-2.2,23.459q-23.62,18.844-47.079,37.829c-9.795,7.88-25.172,2.015-27.651-10.339-.584-3.043,1.512-4.293,3.164-5.724,4.837-4.152,9.392-8.868,14.853-11.992,7.92-4.535,5.542-8.626,1.27-14.007s-8.062-9.835-14.732-2.68c-2.942,3.164-7.195,5.119-10.077,8.344-4.857,5.462-10.641,2.62-14.45.464a24.306,24.306,0,0,1-10.682-14.007c-.705-2.3,1.572-3.466,3.1-4.716,19.831-16.022,39.7-31.984,59.454-48.087,5-4.031,8.928-3.587,12.737,1.451S210.829,683.7,215.887,690.166Zm-15.518-13.7c-1.27-2.015-2.459-4.635-5.784-2.015-4.031,3.043-7.9,6.207-11.83,9.351L135.03,722.11c-2.177,1.753-4.353,3.346-1.854,6.53,3.063,3.89,4.313.2,6.046-1.27,18.562-14.934,37.143-29.807,55.645-44.8,1.975-1.612,4.656-2.781,5.5-6.107Zm-7.538,68.966c-1.149-2.136-2.015-5.3-5.5-2.58-7.82,6.187-15.458,12.576-23.2,18.844-2.66,2.156-1.129,3.93.282,5.865,2.418,3.305,3.225.484,4.877-.947,6.308-5.4,12.818-10.54,19.227-15.821,1.753-1.431,3.99-2.5,4.313-5.361Zm15.659-10.6c7.6-6.308,14.833-12.233,21.968-18.3,1.209-1.048.363-2.62-.484-3.628a2.9,2.9,0,0,0-4.373-.524c-6.57,5.24-13.1,10.48-19.65,15.74a2.821,2.821,0,0,0-.665,4.333,16.12,16.12,0,0,0,3.2,2.378Z"/>
      <path id="Tracé_11" data-name="Tracé 11" class="cls-2" d="M497.375,499.814c4.535,14.732,11.689,27.973,19.509,41.3,15.418,26.341,15.1,53.448-2.358,79.446a275.361,275.361,0,0,1-26.8,32.569c-25.837,28.074-46.575,58.768-50.042,98.612-9.009-19.489-9.593-39.461-4.373-59.8s16.869-36.9,33.113-50.183c14.108-11.468,27.792-23.056,37.063-39.159,12.536-21.786,13.06-43.734,2.177-66.084C500.015,524.865,495.884,513.014,497.375,499.814Z"/>
      <path id="Tracé_12" data-name="Tracé 12" class="cls-2" d="M258.774,235.356c-1.854,13.14-9.15,23.459-21.121,30.392-12.5,7.235-25.192,6.469-36.881-1.632-14.652-10.2-26.2-23.923-39.078-36.277-4.031-4.031-6.046-10.359.343-16.526,12.6-12.092,24.527-24.87,36.277-37.808,4.555-5.038,8.243-6.046,13.14-1.229,12.8,12.334,26.663,23.56,38.292,37.164C255.691,216.714,258.21,225.259,258.774,235.356Zm-40.549,9.714c7.336.262,12.334-4.9,15.6-11.911,2.862-6.167-.343-10.782-4.978-14.813-3.285-2.822-6.228-6.046-9.432-8.989-11.1-10.077-11.145-10.077-21.6.786-11.306,11.729-11.407,11.85.282,23.036,5.462,5.18,9.976,12.012,20.134,11.891Zm34.261-23.016c-2.015,29.868-22.733,45.588-50.949,37.929,11.669,9.795,26.442,9.936,38.937.383,13.624-10.46,18.118-24.769,12.052-38.312Zm-44.54-27.691a24.185,24.185,0,0,0-2.64-3.023c-1.854-1.471-3.063,0-4.172,1.25q-9.734,10.077-19.408,20.154c-1.532,1.572-2.479,3.325-.846,5.24,2.2,2.58,4.031,1.008,5.784-.786q9.331-9.734,18.683-19.529a38.808,38.808,0,0,0,2.6-3.305Z"/>
      <path id="Tracé_13" data-name="Tracé 13" class="cls-2" d="M595.1,876.125c-16.486-4.9-31.3-10.42-35.41-27.691a34.544,34.544,0,0,1,3.164-26.2,36.035,36.035,0,0,1,48.55-14.108c20.738,11.085,26.2,32.387,14.309,57.4,7.376-1.915,11.246,2.519,14.571,7.477,6.328,9.472,4.514,14.531-6.369,18.018q-18.592,6.046-37.244,11.75c-9.593,2.9-16.123-.282-19.207-8.062-3.587-8.868-1.673-13.926,8.283-15.256C588.309,879.188,590.747,877.757,595.1,876.125Zm9.513-65.721c-10.7-6.651-27.389-2.56-35.995,8.787-9.835,12.959-9.815,27.711,0,37.325C562.593,828.32,578.635,810.685,604.613,810.4Zm-10.238,41.174a12.092,12.092,0,0,0,12.092-12.5c.161-5.1-1.874-11.891-8.626-11.064-7.3.887-12.395,6.046-12.777,14.229-.181,6.107,2.5,9.412,9.331,9.331Zm-9.815,47.6c-2.842-11.145,5.018-11.871,11.951-13.906q15.276-4.474,30.231-9.795c2.4-.846,7.376-.5,6.308-4.555s-5.119-1.471-7.6-.726c-12.092,3.628-23.983,7.578-35.954,11.427-12.375,3.99-12.375,3.99-4.918,17.554Zm7.961-42.645c10.3,3.668,16.929,1.29,21.323-6.308,3.688-6.429,2.6-12.415-4.736-18.5C611.727,845.693,605.54,852.787,592.521,856.535Z"/>
      <path id="Tracé_14" data-name="Tracé 14" class="cls-2" d="M109.113,555.116A35.491,35.491,0,0,1,73.36,518.577a35.954,35.954,0,0,1,35.713-35.833,37.043,37.043,0,0,1,36.68,36.277,36.136,36.136,0,0,1-36.64,36.1Z"/>
      <path id="Tracé_15" data-name="Tracé 15" class="cls-2" d="M862.581,555.156a35.813,35.813,0,0,1-36.1-36.277,36.378,36.378,0,0,1,36.64-36.035,36.861,36.861,0,0,1,35.733,35.995,36.156,36.156,0,0,1-36.277,36.317Z"/>
      <path id="Tracé_16" data-name="Tracé 16" class="cls-2" d="M569.364,162.48c-7.195,0-15.216-2.4-23.419-3.708-10.681-1.713-12.334-8.928-10.581-16.647,5.2-22.733,11.548-45.225,17.252-67.838.867-3.466,2.015-5.542,6.046-4.716,16.869,3.608,33.093,8.686,45.628,21.363,11.407,11.548,13.2,31.42,4.857,49.74C602.376,155.406,589.175,162.9,569.364,162.48Zm20.315-48.369c1.592-8.062-4.031-12.334-11.306-15.579-4.031-1.794-6.167-.705-7.215,3.648-2.5,10.319-5.381,20.557-7.84,30.876-1.29,5.361.927,7.276,6.53,6.248,11.588-2.156,19.328-11.306,19.831-25.212Zm-49.437,38.131c25.656,11.85,48.047,9.875,60.461-4.313,10.2-11.729,13.745-32.407,7.034-43.371,0,17.635-2.378,34.261-18.138,44.681S556.849,153.572,540.242,152.242Zm37.506-58.909c-8.062-5.744-11.75-5.4-13.483,3.668-2.2,11.407-5.744,22.532-8.666,33.778-.625,2.479-1.391,5.038,2.3,8.062,1.29-3.668,2.519-6.57,3.346-9.553,2.68-9.916,5.724-19.751,7.618-29.807.887-4.756,3.144-6.046,8.888-6.147Z"/>
      <path id="Tracé_17" data-name="Tracé 17" class="cls-2" d="M368.149,898.354c-10.661-.988-21.665-4.031-30.231-13.181-6.469-6.772-7.255-14.873-6.046-23.419.524-4.031,2.338-6.49,7.558-5,7.86,2.257,15.337,4.635,18.32,13.181,1.008,2.942,2.418,4.9,5.5,4.514a6.872,6.872,0,0,0,6.046-4.474,7.175,7.175,0,0,0-2.68-8.062,30.41,30.41,0,0,0-6.046-3.345c-17.252-8.908-22.935-24.185-14.813-39.764,7.658-14.712,25.757-19.892,41.557-11.387a40.308,40.308,0,0,1,20.154,26.4c2.136,8.263-1.653,12.092-9.533,9.513-7.376-2.378-17.493-1.532-18.32-13.322A2.761,2.761,0,0,0,375.586,828a8.525,8.525,0,0,0-5.824,6.389,5.018,5.018,0,0,0,3.346,6.429c8.424,2.983,13.725,9.553,18.562,16.365,6.469,9.069,6.167,18.965,1.229,28.5S379.616,898.576,368.149,898.354Zm-15.8-49.336c-1.25-11.347-2.015-20.476,4.555-28.618s15.68-9.795,26.643-9.956c-12.213-6.147-24.185-3.769-32,5.341C343.521,825.216,343.259,836.039,352.348,849.018Zm-10.8,34.423c-.524-6.913-3.87-12.5-.262-17.735,1.794-2.6,2.177-3.91-1.451-5.341-4.212-1.653-4.293.826-4.958,3.547-1.814,7.316.343,13.241,6.671,19.529ZM374.155,864.8c-2.015,6.53-4.031,12.314-11.447,13.886,5.18,4.454,9.674,3.789,13.019-.222s3.547-8.767-1.572-13.664Z"/>
      <path id="Tracé_18" data-name="Tracé 18" class="cls-2" d="M847.587,717.192c.3,7.114-8.525,13.684-14.853,11.689-8.787-2.781-15.539-9.049-23.076-13.926a32.387,32.387,0,0,0-16.849-4.978c-15.317-.867-30.473,3.1-45.89.423-7.82-1.35-6.328-4.031-4.152-9.351,5.542-13.382,15.659-15.982,28.941-15.1,13.745.887,14.41-.282,8.4-12.878-5.683-11.891-7.7-22.613,2.7-32.851,3.164-3.124,4.494-6.893,9.029,0,7.658,11.709,11.347,24.829,16.264,37.466a37.808,37.808,0,0,0,16.486,20.335c7.054,4.192,15.055,7.5,19.892,14.813C845.572,714.532,846.781,716.084,847.587,717.192Zm-58.325-29.545c-8.767.867-16.526,2.922-23.943,2.015-12.757-1.512-16.123,6.55-20.154,15.518,4.393,1.814,7.578.786,9.069-2.721,3.1-7.3,8.747-9.13,15.982-9.069,5.663,0,11.367-1.149,17.01-.927,6.57.282,6.872-2.015,5.139-7.618-3.668-11.871-15.156-23.237-3.083-36.619,1.673-1.854.423-4.978-1.673-6.046s-3.144,1.632-4.353,3.063c-5.159,6.046-7.094,12.092-2.882,19.811C783.982,671.685,786,679.182,789.262,687.647Z"/>
      <path id="Tracé_19" data-name="Tracé 19" class="cls-2" d="M484.5,173.967c-4.333,7.558-8.807,12.616-10.883,19.025-1.189,3.648-4.575,3.063-7.578,3.305a277.859,277.859,0,0,0-97.544,25.394c-8.787,4.172-16.123,7.457-24.064-.887-2.4-2.479-6.469-3.366-10.54-5.361C380.241,188.6,429.719,175.781,484.5,173.967Z"/>
      <path id="Tracé_20" data-name="Tracé 20" class="cls-2" d="M303.052,792.608c-4.716-1.854-6.61,1.491-8.706,4.635-5.744,8.686-11.548,17.292-17.292,25.978-3.547,5.381-8.5,10.077-2.56,17.554,2.922,3.648-2.439,6.953-4.313,10.258s-4.273,1.673-6.953.726c-12.213-4.353-21.6-13.221-32.246-19.993-2.942-1.854-2.358-4.817-.3-6.953,3.386-3.547,4.232-12.092,11.165-9.17,6.409,2.64,7.558-1.27,9.9-4.656,5.865-8.586,11.77-17.131,17.413-25.857,2.781-4.273,7.376-7.477,1.149-14.108-4.031-4.393,3.769-9.573,6.752-14.108,2.519-3.789,5.462-1.008,7.719.725,8.666,6.691,19.469,10.54,26.482,19.408,2.015,2.64,5.542,5.341,1.653,9.412C310.066,789.4,309.179,795.086,303.052,792.608Zm-19.469-11.951a11.547,11.547,0,0,0-2.3-2.842c-2.439-1.532-3.547.5-4.635,2.136q-12.939,19.045-25.8,38.131c-1.29,1.894-2.9,3.829,0,5.945s4.273,0,5.562-1.915q12.556-18.743,24.971-37.547c.766-1.108,1.27-2.3,2.2-3.91Zm.322-17.272a3.1,3.1,0,0,0-3.305-4.031c-4.353.847-5.24,5.381-7.255,8.525-1.37,2.156,1.31,4.393,2.7,4.172C280.843,771.3,281.568,766.347,283.906,763.385ZM239.83,818.243a21.806,21.806,0,0,0-6.53,8.747,2.821,2.821,0,0,0,2.761,4.131c4.817-.363,5.442-5.321,7.558-8.424C245.251,820.259,242.591,819.352,239.83,818.243Z"/>
      <path id="Tracé_21" data-name="Tracé 21" class="cls-2" d="M528.754,177.353A300.655,300.655,0,0,1,657.013,225.36a16.387,16.387,0,0,1-1.733,2.62c-12.515,12.919-12.515,12.878-28.638,3.91-22.854-12.737-46.8-22.854-72.554-27.933-10.238-2.015-18.138-5.6-20.859-16.546A68.146,68.146,0,0,0,528.754,177.353Z"/>
      <path id="Tracé_22" data-name="Tracé 22" class="cls-2" d="M468.6,878.483a136.369,136.369,0,0,1,0-14.108c1.229-11.609.2-20.9-14.37-23.459-6.651-1.149-3.426-8.444-3.587-13.019-.161-4.252,2.58-6.57,7.114-6.55,14.732,0,29.465-.242,44.2.222,7.235.222,14.511,16.345,10.258,21.968-2.177,2.862-5.683,1.794-8.465,1.491-6.691-.746-8.727,2.015-8.686,8.465.121,18.138-.524,36.156-.282,54.234.1,6.731-2.2,8.465-8.646,8.324-15.619-.3-17.735-2.015-17.735-17.514V878.382Zm3.688,31.057c5.5-2.378,4.434-5.865,4.535-8.908.443-14.753.685-29.505.988-44.338,0-2.338.121-4.7,0-7.034s-.726-4.031-3.466-3.708c-2.318.322-2.015,2.378-2.015,3.91-.06,20.093-.04,40.086-.04,60.078Zm32.931-80.212V826c-5.824-2.015-12.092-.826-18.138-.947-9.351-.181-18.723.1-28.074,0-5.038,0-5.18,3.265-4.978,6.731.121,2.459-1.29,6.167,2.015,6.913,4.837,1.048,3.789-3.325,4.172-6.046.645-4.8,4.393-3.225,7.013-3.265,12.818-.161,25.394-.06,37.99-.06Z"/>
      <path id="Tracé_23" data-name="Tracé 23" class="cls-2" d="M709.816,153.169c-6.046-2.842-7.134.645-8.666,3.084-5.643,9.069-11.306,18.138-16.808,27.288-2.439,4.031-5.724,7.114,0,12.6,4.7,4.535-2.963,9.069-5.038,13.563-1.653,3.507-4.837,2.257-7.658.464-7.618-4.8-15.5-9.23-23-14.249a12.092,12.092,0,0,1-2.761-18.683c1.088-1.29,2.318-3.426,3.789-2.68,9.754,5.018,10.9-3.769,14.108-8.727,4.434-6.671,8.2-13.805,12.717-20.436,3.587-5.28,5.643-10.319,2.519-16.607-2.519-5.038,2.015-8.062,4.393-11.266s5.563,0,7.82,1.411c8.062,4.756,15.9,9.855,23.781,14.914,3.426,2.217,7.618,4.918,4.373,9.432C716.628,147.123,716.043,154.942,709.816,153.169ZM676,188.639c2.539-.544,3.366-2.842,4.575-4.776,6.147-10.077,12.314-19.912,18.441-29.888,2.338-3.89,3.527-8.485,10.4-4.837,4.494,2.4,4.656-4.313,6.993-6.651a2.761,2.761,0,0,0-1.129-4.817c-3.829-1.713-4.434,1.572-5.825,3.628-1.653,2.459-3.708,4.192-6.631,2.136s-4.938-.625-6.469,1.874c-7.679,12.576-15.277,25.172-22.955,37.748C671.383,186.281,672.269,188.035,676,188.639Zm-.584,19.63a14.611,14.611,0,0,0,6.328-9.392c.625-2.318-2.015-3.749-3.87-2.9-3.688,1.713-5.542,5.542-6.893,9.069C670.355,206.637,673.519,207.423,675.413,208.269Z"/>
      <path id="Tracé_24" data-name="Tracé 24" class="cls-2" d="M455.8,156.353c-7.88,2.136-8.061-6.409-9.754-12.294-1.31-4.776-4.817-11.79,5.522-12.092,4.031-.161,2.761-4.031,2.66-6.409-.484-10.7-1.229-21.4-1.834-32.085a6.752,6.752,0,0,0-3.809-6.046c-6.731-4.212-7.276-11.79-6.046-18.582s8.061-4.918,12.475-4.837c8.364.161,17.171-2.822,25.031,3.245,5.865,4.514,6.49,15.317,0,18.521-3.769,1.834-3.809,4.212-3.668,7.134q.907,17.534,2.015,35.047a6.268,6.268,0,0,0,4.273,6.187c4.837,1.391,5.4,4.8,5.845,9.21.786,8.062-1.612,11.629-10.359,11.145C471.6,153.935,464.887,155.446,455.8,156.353Zm17.312-26.079c2.338-1.35,1.512-3.567,1.471-5.321-.242-9.674.242-19.327-1.592-28.981-.705-3.789-2.761-10.54,1.774-11.669,10.863-2.721,4.031-8.908,6.187-14.37-5.845,1.451-2.62,7.074-6.59,7.316-7.477.443-6.046,5.7-5.824,10.178q.826,17.534,2.015,35.027C470.712,125.155,469.361,128.621,473.11,130.274Zm-23.439,19.952c2.781,1.169,3.628,1.854,4.474,1.854,6.651,0,13.322.161,19.952,0,12.8-.4,12.8-.5,8.062-15.68.726,12.415-7.074,9.23-12.858,9.694C463.174,146.518,456.846,145.873,449.671,150.226Z"/>
      <path id="Tracé_25" data-name="Tracé 25" class="cls-2" d="M384.937,477.423c4.232-5.119,13.221-8.827,8.525-15.5-7.88-11.206,3-9.855,6.832-11.609,18.582-8.545,38.292-7.376,58.244-5.562-7.417,4.031-19.388,1.592-20.154,14.672,0,.867-2.68,1.814-4.232,2.318a226.84,226.84,0,0,0-34.866,14.732C394.369,479.116,389.552,473.332,384.937,477.423Zm25.172-21.242c-1.25-1.189,1.552-5.442-3.688-4.474-4.918.927-5.482,4.192-5.038,8.062.343,2.8-.1,7.215,4.031,6.55,5.1-.766,4.192-5.824,4.756-10.137Z"/>
      <path id="Tracé_26" data-name="Tracé 26" class="cls-2" d="M350.031,502.877l18.138-13.805a3.366,3.366,0,0,1,5.22.584c1.854,2.8-1.35,3.346-2.66,4.031-6.449,3.829-13.039,7.376-19.589,11.024Z"/>
    </g>
  </g>
</svg>
