<svg id="Layer_1" data-name="Layer 1" xmlns="http://www.w3.org/2000/svg" xmlns:xlink="http://www.w3.org/1999/xlink" viewBox="0 0 477.33 477.3"><defs><symbol id="logo_test" data-name="logo_test" viewBox="0 0 477.33 477.3"><path d="M477.33,238.88C477.13,370,370.07,478.73,235.88,477.29,104.6,475.88-.13,367.87,0,238.3.13,105.87,109.17-.16,238.88,0,367.6.16,477.38,105.51,477.33,238.88ZM238.47,463.24c124.08-.47,224.63-99.52,224.64-224.65C463.11,113,361.61,14.33,239,14.17,114.94,14,16.17,114.87,14.18,234.69A224.84,224.84,0,0,0,238.47,463.24Z"/><path d="M203.13,375.22c-10.81-10.75-14.26-23.15-12.12-37.35-6.22,9.49-6.08,19.1-.51,29-8.05-2.14-16.74-11.81-20-22-.5-1.57-.75-3.22-1.21-4.81s-.2-3.83-2.91-3.91-4.29,1.29-5.13,3.79c-1.21,3.58-.42,7.23-.17,11.67a40.58,40.58,0,0,1-19.33-21,39.81,39.81,0,0,1-2.7-21.54c.35-2.26.33-4.21-1.19-6.08-5.8-7.14-7.29-15.44-6.34-24.35a11.59,11.59,0,0,0-3.6-10.34c-4-3.84-2.62-8.15,0-12.22,6.34-10,15.1-17.67,24.62-24.51a141.33,141.33,0,0,1,12.07-8c2.76-1.59,2.68-2.82,1.05-5.3-4.74-7.25-4.33-8.17,3.37-12.49,6.65-3.73,13.29-7.52,19.79-11.51,7.45-4.58,8.54-7.72,5.74-16.32-4-12.41-11.9-22.59-19.73-32.71a248.1,248.1,0,0,0-28.24-31A23.92,23.92,0,0,1,176,124.43a62.94,62.94,0,0,1,5.31,12.33c1.21,3.61,3.13,5.14,6.44,1.92a9,9,0,0,1,1.63-1.15c4.62-2.86,9.59-5.74,14.8-2.37,5.37,3.49,6.94,9.31,7.21,16.1-3.85-2.6-7.4-4.66-11.4-1.81-3,2.11-4.17,5-3.27,9a33.41,33.41,0,0,1,17.57-5.11,3.92,3.92,0,0,0,2.71-1c7-8.16,16.09-6.38,25-5.34,1.56.18,3.51,1.58,4.53-.14.87-1.44-.46-3.18-1.29-4.61a11.51,11.51,0,0,0-18-2.39,50.66,50.66,0,0,0-3.59,4.47c-2.67-4.51-4.66-9.14-2.38-14.1,2.43-5.3,7.45-6.1,12.71-5.89,1.5.06,3,0,4.5,0,6.93,0,7.67-1.3,4.32-7.42-4.24-7.76-3.84-15.31,1.37-22.42,4.62-6.3,7.42-6.31,12.42-.42,5.41,6.36,6.17,14.75,2,22.3-3.9,7.12-3.4,7.95,4.78,8,1.33,0,2.67.07,4,0,5.16-.34,10.18.77,12.38,5.63,2.14,4.7.75,9.7-2.33,14.14-5.72-7.41-10.44-9.21-16.46-6.41a11.52,11.52,0,0,0-5.15,4.55c-3.09,5.12-2.37,7.41,3.08,9.51,4.12,1.59,8.21,3.23,12.21,5.22-8-.93-15.83-1.92-23.82-1.77-10.83.22-14.47,2.54-17,12.95C226.34,185,215,195,200,202.72c.64-2.43,2.42-3,3.66-4.1a28.81,28.81,0,0,1,3.86-3.16c7.26-4.32,10.08-10.83,9.08-18.94-.31-2.47,2.74-6.92-3.06-7.11-6.12-.19-10,2.92-9.37,8.22,1.41,12.54-3.85,21.1-14.71,26.89-3.35,1.78-6.32,4.28-9.4,6.54-3.41,2.5-4.06,6-1.6,9.12,2.69,3.45.79,4.61-1.79,6.25-11.38,7.22-22.56,14.74-32.86,23.46a90.89,90.89,0,0,0-7.42,7.4c-1,1-2.24,2.26-1.53,3.94s2.55,1.22,4,1.23c8.48,0,17,0,25.82,0A7.46,7.46,0,0,1,158.8,268c-5.72,1.28-11,3.81-12.13,9.61-1.43,7.06.21,14.23,6.33,18.91,8.45,6.44,18.23,8.38,28.61,6,2-.47,3,.18,4.36,1.24,5,4,9.59,8.5,14.21,13-1.37-6.57-6-10.68-10.75-14.79-1-.87-3.71-.93-2.27-3.45,1.19-2.09,2.85-2.27,5.1-1.53,7.35,2.42,14.6,5.1,21.75,8.19-4.87-5.65-11.46-8.3-18.23-10.63a30.07,30.07,0,0,0-3.83-1c-1.29-.25-2.86-.08-2.43-2.16.47-2.27,2.14-1,3.2-.87a111.08,111.08,0,0,0,22.51.91c-3.55-2.92-7.57-1.55-10.95-2.8-2.27-.85-4.85-.94-7.3-1.24-4.75-.59-8.95-1.56-10.68-7.09-.81-2.6-3.5-4.3-6.46-5.85a28.89,28.89,0,0,1,18.49-9c5.75-.63,11.68-.59,16.57-4.75-1.18,3.63-3.81,5.88-6.76,7.88-1.37.93-2.79,1.82-4.06,2.88-1.51,1.27-2.33,3-1.4,4.89,1,2.08,2.89,2.6,5.08,2a31,31,0,0,0,13.14-6.77,51.18,51.18,0,0,0,15.59-24.83c2.87,10.89.71,17-14.72,41.91,8.48-2.46,13.92-7.88,18.63-15.73.4,13.44-1.7,24.68-12.2,33-5.09,4-9.71,8.62-14.62,12.88-11.39,9.88-13.85,22.12-9.63,36.13a93.35,93.35,0,0,0,19.72,35.56,91.22,91.22,0,0,1-25.47-4.87c-55.5-18.07-91.77-55.26-105-112-12-51.72.66-98.48,36.66-138.23,3.57-3.94,7.55-7.51,11.4-11.2,4.6-4.41,5.59,1.49,8,3,3.08,1.91.91,3.24-.78,4.74-27.09,24-43.28,54-47.94,89.89C91.83,289.32,134,354.64,199,374.87A6.87,6.87,0,0,0,203.13,375.22Zm-49.23-45c1.86-8.15,7.87-8.1,14.09-7.65a19,19,0,0,0,4-.06c4.74-.67,9.11-2.08,11.39-6.84.86-1.81,1.36-3.64-1.85-3.36-7.56.68-13.93-1.95-19.64-6.78a17.68,17.68,0,0,0-5.72-2.91c-2.73-.92-4.8.13-6.13,2.77C146.57,312.22,148.07,323.43,153.9,330.18ZM146,293.87c-5.15-5.75-.61-14.83-7-20.09C138.68,281.39,139.21,288.7,146,293.87Z"/><path d="M288.31,317.44c1.72-6.86,4.43-12.53,5.49-18.74,2.12-12.37,1.24-24.07-5.38-35.07-6.33-10.5-14.89-19-23.9-28.61.5,8.73,4.62,14.69,8.7,20.62,4.53,6.61,8.67,13.35,10.14,21.42,3.42,18.87-.59,35.69-14,49.77-4.47,4.7-9.52,8.84-14.14,13.4-13.17,13-18.43,29.61-21,47.38a13.79,13.79,0,0,1-.35,1.36c-9.57-16.89-6.74-39.31,7.11-55.75,7.4-8.77,15.94-16.55,22.87-25.75,4.22-5.61,7.8-11.58,9.52-18.49,2.06-8.3.32-16.2-3-23.76a104,104,0,0,0-7.12-13.12c-10.49-16.72-11.3-21-6.66-39.41-5,1.52-9.71,3.55-15.52,3.66,4.58-4.48,10.35-6.89,13.73-12.85-6.94-.38-12.81,2.53-19.68,3.1l9-8.4c-8.77.43-16.33,3.39-24.74,1.81,3.81-2.24,7.39-3.88,10.47-6.35,3.6-2.88,6.68-6.13,7.62-10.75,3.44-16.87,16.93-21,30.82-20a65.24,65.24,0,0,1,23.45,6.23c3.46,1.66,6,.73,8.47-1.44,4.4-3.82,5.22-8.81,4-14.1-1.09-4.58-6.57-6.78-10.83-4.71-1.18.57-2.26,1.36-3.57,2.16a16.51,16.51,0,0,1,1.17-7.45c3.24-9.88,9.86-12.35,18.93-7.22a17.33,17.33,0,0,1,3.33,2.17c3.61,3.36,5.42,1.51,6.77-2.14,1-2.8,2-5.63,3.29-8.34,5.23-11.27,13-16,25.36-15.34a24.53,24.53,0,0,0,10.67-1.7c9.87-3.9,19.89-7.41,29.67-11.53,3.25-1.38,5.51.1,7.44,1.54,2.15,1.59-.29,3.58-1.08,5.19-5.59,11.27-11.4,22.44-16.91,33.75-1.73,3.56-3.28,3.65-5.53.72-2.39-3.13-5.95-5.56-4.36-10.63.8-2.54-4.45-6.63-7.23-5.85-3.24.92-4.71-1.17-6.05-3.19-2.59-3.93-4.64-3.46-7.74-.27-12.06,12.44-24,25-33.52,39.53a54.93,54.93,0,0,0-3.89,6.94c-3.71,8.06-3.09,10,3.61,15.73a127.44,127.44,0,0,1,30.4,37.3c.74,1.38,1.83,2.75,1.58,5-13.35-11.85-28.48-18.5-46.67-18.07,36.35,14.67,58.69,39.49,58.84,80.51-9.56-23-22.54-43-46.81-55a67.22,67.22,0,0,1,2.81,46A74.54,74.54,0,0,1,288.31,317.44ZM250.25,197.56l5.31-3.52c6.65-4.37,9.8-3.12,11.89,4.75a17.18,17.18,0,0,1,.26,7.39c-1,6.16-5.06,10.69-8.44,16.37,6.16-1.35,11.44-3.12,16-6.62,6.87-5.26,9.17-13.31,6-21.39s-9.21-13.63-17.23-17.06a8.74,8.74,0,0,0-9,1.06c-5.38,3.76-9.36,8.8-12.65,14.6,4.17,1.49,6.67-1.41,9.57-3.06C253.1,192.69,251.19,194.36,250.25,197.56ZM395.84,102c-2.5,0-3.74.72-4.46,2.15q-8.4,16.7-16.76,33.42c-.57,1.14-.75,2.36.61,3s1.68-.75,2.06-1.51C383.41,126.9,389.47,114.73,395.84,102Zm-16.63,9.39-9.22,4c-.77.33-1.68.69-1.31,1.7a1.75,1.75,0,0,0,2.38,1.21C374.27,116.89,378.08,116.18,379.21,111.37Z"/><path d="M281.61,375.67A129.91,129.91,0,0,0,321,357.34c31.73-21.74,52.5-51.37,59.92-89.08,9.43-47.95-2.75-90.47-35.82-126.77-1.15-1.26-3.88-2.38-3-4a19.21,19.21,0,0,1,6-6.54c1.55-1.06,2.68,1.4,3.76,2.51,20.26,20.94,33.91,45.65,39.29,74.22C402,265.49,385.76,314.83,342,354.39c-22.52,20.34-49.33,32.14-79.49,36.11-.65.08-1.28.33-1.93.47s-1.29.21-2.92.47a73.54,73.54,0,0,1,15.68-17c20-15.41,38.32-32.51,51.87-54.13,1.55-2.46,2.94-5,4.75-8.14,2.21,11-1.71,19.55-7.49,27.47-9.78,13.39-22.68,23.3-36.41,32.25C284.57,372.84,282.68,373.3,281.61,375.67Z"/><path d="M324.26,254.51c31.37,25,31.86,54.79,11,78.07,3.11-15.1,2.55-29.15-3.17-43.39-4.55,8.88-8.68,17.17-13,25.35-11.24,21.27-27.53,37.78-47.81,50.53-9.78,6.15-18.64,13.35-25.79,24.35a45.46,45.46,0,0,1,5.58-19.89c7-13.55,17.61-24.1,28.59-34.35,12.64-11.82,25.64-23.31,34.94-38.21a59.71,59.71,0,0,0,8.93-29.17C323.72,263.66,325,259.62,324.26,254.51Z"/><path d="M170.17,74c.47-9.91,1.25-18.7,1.14-27.47,0-4.26,2.17-5.51,5.27-6.48s5.67.93,6.77,3.38c5.09,11.33,9.86,22.81,14.64,34.27,1.52,3.64-1.67,4.09-3.87,5-2,.81-4.33,3.3-6-.71-1.5-3.63-3.29-7.14-5.17-11.17a23.57,23.57,0,0,0-1.53,10.56c.19,3.41-.82,5.48-4.16,6.93s-5.53.93-8-1.4c-2.88-2.7-6.07-5.09-9.74-8.13.42,4.7,2.5,7.94,4,11.3s1.23,5.38-2.61,6.83c-3.25,1.23-5.44,2.42-7.22-2.09-4.45-11.25-9.45-22.28-14.07-33.47-.71-1.72-2.86-4,.08-5.61,2.5-1.32,5.1-3.3,8.16-.62,5.62,4.93,11.39,9.68,17.1,14.51ZM179.58,63c-1.62,3.19-.82,6.63-1.31,9.9-.67,4.52,1.07,10.36-5.83,11.91-.55.13-1.31.68-1,1.41a2.2,2.2,0,0,0,1.42,1.22c2.56.08,5.74-.46,6.34-2.82A51.3,51.3,0,0,0,179.58,63Zm17,15.87A3.3,3.3,0,0,0,195,76.1c-1,2.59-5.29,1.46-5.54,4.77a1.3,1.3,0,0,0,2,1.24C193.3,81.08,196.13,81.39,196.59,78.9ZM161.34,91c-1.71,1.38-4.5,1.22-5.67,3.42a1.44,1.44,0,0,0,1.63,1.88c2-.69,4.65-.75,5.65-3.17A1.81,1.81,0,0,0,161.34,91Z"/><path d="M355.2,401.23c2.55,3.44,5.08,6.5,7.19,9.83,1.07,1.68,4.33,3.3.75,6-3.29,2.46-6.67,4.28-9.74.64-4.93-5.83-9.31-12.12-13.89-18.24-.38-.5-.9-1.49-.72-1.71,4.52-5.44-1.92-4.23-3.56-5.84-.79-.78-2-1.11-2.84-1.88-5.19-4.92-5.11-6.37.55-10.62a102.27,102.27,0,0,1,9.32-6.68c5.14-3,10.87-4.24,15.91-.38,5.22,4,9.63,9.07,7.82,16.5-.56,2.29.12,3,1.9,3.62,3.1,1.15,6.11,2.59,9.29,3.46s5.2,2.85,5.58,5.78c.23,1.8-6.92,5.27-9.16,4.54-4.41-1.43-8.7-3.23-13.1-4.71C359,401,357.57,399.67,355.2,401.23Zm.48-28c-2.55-2.08-4.85-2-7.42-1.33-6.43,1.57-10.82,6.33-16,9.89-1.2.83-2.85,1.68-1.48,3.52,1.65,2.22,2.5-.22,3.46-.87C340.91,380,346.35,373.4,355.68,373.27Zm-.31,9.57c-1.29,1.55-.78,3.48-2.13,4.67-.57.5-1.08,1.38.14,1.91s2.17.83,3.06-.38C358.08,386.83,358,384.86,355.37,382.84Zm-9.13,14.36c.39-1.66-.57-1.67-1.35-1.81a3.72,3.72,0,0,0-4,2.28c-.56,1.1,1.17,2.82,1.41,2.68A28.89,28.89,0,0,0,346.24,397.2Z"/><path d="M419.57,174.62c3.83-1.5,7.63-3.08,11.49-4.5,4.17-1.53,6,.1,8.57,5.67,2,4.3-.51,5.2-3.48,6.38-10.31,4.11-20.66,8.15-30.88,12.46-3.22,1.35-4.48.65-6-2.44-2.58-5.08-2.94-9.33,1-14a49.27,49.27,0,0,0,7.43-13c-4.09,1.64-8.26,3.09-12.24,5-3.12,1.47-5,.94-5.95-2.42a18.75,18.75,0,0,0-1.36-3.2c-1.87-3.65-1.08-5.63,3.08-7.14,9.65-3.52,19.18-7.4,28.57-11.57,3.32-1.47,6.16-1.13,7.87,1.34,2,3,4.39,6.41,1.63,10.49-3.6,5.35-7,10.82-10.53,16.24Zm19.1,3.1c-.1-1.33-.69-1.54-2.51-.78-10.86,4.55-21.79,8.9-32.72,13.29-1.11.45-2.44.79-2,2.29.55,2,2.17,1.12,3.26.69q16.18-6.41,32.29-13C437.7,179.9,439,179.63,438.67,177.72Zm-27.2-.78,1.25.92c7.22-6.06,10.66-15,16-22.45,1.05-1.46.16-2.57-1.4-3.5q-7.56,11.68-15.1,23.33A12.53,12.53,0,0,0,411.47,176.94Zm1-18.87-19.85,8a1.62,1.62,0,0,0-1.06,2.35c.55,1.27,1.49.92,2.47.52,5.18-2.12,10.39-4.15,15.54-6.35C411.05,162,412.19,160.73,412.44,158.07Z"/><path d="M69.62,163.82c-5.33-2.16-9.32-4.17-13.53-5.38-4.9-1.42-5.55-8.21-2.79-11.85a1.77,1.77,0,0,1,2.51-.61c11.88,5,24.15,9.12,35.72,14.89,1.59.79,4.62,1.5,3.53,4-1.23,2.76-.91,6.77-5.25,7.71-7.57,1.63-15.07,3.55-22.61,5.34-.21,2.1,1.73,1.84,2.71,2.29,3.6,1.67,7.46,2.81,11,4.61,4.63,2.36,5.18,6.66,1.8,10.66-1.41,1.66-2.93,1.1-4.5.47-10.88-4.4-21.71-8.93-32.67-13.14a5.87,5.87,0,0,1-3.86-6.59c.31-2.79.85-6.08,5.12-6.88C54,168,61.08,165.91,69.62,163.82ZM59.21,175c2.27,2.66,4.54,2,6.74,1.52,7.42-1.66,14.8-3.51,22.26-5,3.88-.76,4-4,5.14-6.57a1.16,1.16,0,0,0-.8-1.58c-.91-.34-1.81-.08-2,.82-1.08,4.66-5,4.57-8.5,5.35C74.61,171.23,67.23,173.08,59.21,175Zm-14.8,4.59c.74,2,2.49,2,3.76,2.57,9.66,4,19.49,7.52,29,11.77,4.06,1.82,4.85-.13,5.84-3.06.39-1.17.86-2.42-.47-3-1.55-.71-2,.7-2.29,1.82-.89,3.24-2.77,2.86-5.28,1.79-6.56-2.8-13.18-5.44-19.84-8C51.68,182.1,48.41,180.11,44.41,179.59Zm10.44-24.9L54.37,156c6,2.16,11.68,5.33,18.34,5.82Z"/><path d="M107.12,342.45a24.35,24.35,0,0,0-2.82,1.62c-2.5,1.93-4.82,4.13-7.45,5.86-2.86,1.88-3.24,3.36-.82,6.15,4.11,4.73,3.9,4.91,8.94.89a40.91,40.91,0,0,0,3.88-3.14c3-3,5.27-2.87,8.12.54,5.42,6.5,5.59,6.31-1.09,11.64q-11.72,9.35-23.36,18.77c-4.86,3.91-12.49,1-13.72-5.13-.29-1.51.75-2.13,1.57-2.84,2.4-2.06,4.66-4.4,7.37-5.95,3.93-2.25,2.75-4.28.63-6.95s-4-4.88-7.31-1.33c-1.46,1.57-3.57,2.54-5,4.14-2.41,2.71-5.28,1.3-7.17.23A12.06,12.06,0,0,1,63.59,360c-.35-1.14.78-1.72,1.54-2.34,9.84-7.95,19.7-15.87,29.5-23.86,2.48-2,4.43-1.78,6.32.72S104.61,339.24,107.12,342.45Zm-7.7-6.8c-.63-1-1.22-2.3-2.87-1-2,1.51-3.92,3.08-5.87,4.64L67,358.3c-1.08.87-2.16,1.66-.92,3.24,1.52,1.93,2.14.1,3-.63,9.21-7.41,18.43-14.79,27.61-22.23C97.67,337.88,99,337.3,99.42,335.65Zm-3.74,34.22c-.57-1.06-1-2.63-2.73-1.28-3.88,3.07-7.67,6.24-11.51,9.35-1.32,1.07-.56,1.95.14,2.91,1.2,1.64,1.6.24,2.42-.47,3.13-2.68,6.36-5.23,9.54-7.85C94.41,371.82,95.52,371.29,95.68,369.87Zm7.77-5.26c3.77-3.13,7.36-6.07,10.9-9.08.6-.52.18-1.3-.24-1.8a1.44,1.44,0,0,0-2.17-.26c-3.26,2.6-6.5,5.2-9.75,7.81a1.4,1.4,0,0,0-.33,2.15A8,8,0,0,0,103.45,364.61Z"/><path d="M246.79,248c2.25,7.31,5.8,13.88,9.68,20.49,7.65,13.07,7.49,26.52-1.17,39.42A136.63,136.63,0,0,1,242,324.07C229.18,338,218.89,353.23,217.17,373c-4.47-9.67-4.76-19.58-2.17-29.67s8.37-18.31,16.43-24.9c7-5.69,13.79-11.44,18.39-19.43,6.22-10.81,6.48-21.7,1.08-32.79C248.1,260.43,246.05,254.55,246.79,248Z"/><path d="M128.4,116.78c-.92,6.52-4.54,11.64-10.48,15.08-6.2,3.59-12.5,3.21-18.3-.81-7.27-5.06-13-11.87-19.39-18-2-2-3-5.14.17-8.2,6.25-6,12.17-12.34,18-18.76,2.26-2.5,4.09-3,6.52-.61,6.35,6.12,13.23,11.69,19,18.44C126.87,107.53,128.12,111.77,128.4,116.78Zm-20.12,4.82c3.64.13,6.12-2.43,7.74-5.91,1.42-3.06-.17-5.35-2.47-7.35-1.63-1.4-3.09-3-4.68-4.46-5.51-5-5.53-5-10.72.39-5.61,5.82-5.66,5.88.14,11.43C101,118.27,103.24,121.66,108.28,121.6Zm17-11.42C124.28,125,114,132.8,100,129c5.79,4.86,13.12,4.93,19.32.19C126.08,124,128.31,116.9,125.3,110.18ZM103.18,96.44a12,12,0,0,0-1.31-1.5c-.92-.73-1.52,0-2.07.62q-4.83,5-9.63,10c-.76.78-1.23,1.65-.42,2.6,1.09,1.28,2,.5,2.87-.39q4.63-4.83,9.27-9.69A19.26,19.26,0,0,0,103.18,96.44Z"/><path d="M295.28,434.72c-8.18-2.43-15.53-5.17-17.57-13.74a17.14,17.14,0,0,1,1.57-13,17.88,17.88,0,0,1,24.09-7c10.29,5.5,13,16.07,7.1,28.48,3.66-.95,5.58,1.25,7.23,3.71,3.14,4.7,2.24,7.21-3.16,8.94-6.15,2-12.3,3.95-18.48,5.83-4.76,1.44-8-.14-9.53-4-1.78-4.4-.83-6.91,4.11-7.57C291.91,436.24,293.12,435.53,295.28,434.72ZM300,402.11c-5.31-3.3-13.59-1.27-17.86,4.36-4.88,6.43-4.87,13.75,0,18.52C279.15,411,287.11,402.25,300,402.11Zm-5.08,20.43a6,6,0,0,0,6-6.2c.08-2.53-.93-5.9-4.28-5.49-3.62.44-6.15,3-6.34,7.06C290.21,420.94,291.54,422.58,294.93,422.54Zm-4.87,23.62c-1.41-5.53,2.49-5.89,5.93-6.9q7.58-2.22,15-4.86c1.19-.42,3.66-.25,3.13-2.26s-2.54-.73-3.77-.36c-6,1.8-11.9,3.76-17.84,5.67C286.36,439.43,286.36,439.43,290.06,446.16ZM294,425c5.11,1.82,8.4.64,10.58-3.13,1.83-3.19,1.29-6.16-2.35-9.18C303.53,419.62,300.46,423.14,294,425Z"/><path d="M54.14,275.44A17.61,17.61,0,0,1,36.4,257.31a17.84,17.84,0,0,1,17.72-17.78,18.38,18.38,0,0,1,18.2,18A17.93,17.93,0,0,1,54.14,275.44Z"/><path d="M428,275.46a17.77,17.77,0,0,1-17.91-18,18.05,18.05,0,0,1,18.18-17.88A18.29,18.29,0,0,1,446,257.44,17.94,17.94,0,0,1,428,275.46Z"/><path d="M282.51,80.62c-3.57,0-7.55-1.19-11.62-1.84-5.3-.85-6.12-4.43-5.25-8.26,2.58-11.28,5.73-22.44,8.56-33.66.43-1.72,1-2.75,3-2.34,8.37,1.79,16.42,4.31,22.64,10.6,5.66,5.73,6.55,15.59,2.41,24.68C298.89,77.11,292.34,80.83,282.51,80.62Zm10.08-24c.79-4-2-6.12-5.61-7.73-2-.89-3.06-.35-3.58,1.81-1.24,5.12-2.67,10.2-3.89,15.32-.64,2.66.46,3.61,3.24,3.1C288.5,68.05,292.34,63.51,292.59,56.61ZM268.06,75.54c12.73,5.88,23.84,4.9,30-2.14,5.06-5.82,6.82-16.08,3.49-21.52,0,8.75-1.18,17-9,22.17S276.3,76.2,268.06,75.54Zm18.61-29.23c-4-2.85-5.83-2.68-6.69,1.82-1.09,5.66-2.85,11.18-4.3,16.76-.31,1.23-.69,2.5,1.14,4,.64-1.82,1.25-3.26,1.66-4.74,1.33-4.92,2.84-9.8,3.78-14.79C282.7,47,283.82,46.36,286.67,46.31Z"/><path d="M182.67,445.75c-5.29-.49-10.75-2-15-6.54-3.21-3.36-3.6-7.38-3-11.62.26-2,1.16-3.22,3.75-2.48,3.9,1.12,7.61,2.3,9.09,6.54.5,1.46,1.2,2.43,2.73,2.24a3.41,3.41,0,0,0,3-2.22,3.56,3.56,0,0,0-1.33-4,15.09,15.09,0,0,0-3-1.66c-8.56-4.42-11.38-12-7.35-19.73,3.8-7.3,12.78-9.87,20.62-5.65a20,20,0,0,1,10,13.1c1.06,4.1-.82,6-4.73,4.72-3.66-1.18-8.68-.76-9.09-6.61a1.37,1.37,0,0,0-2-1,4.23,4.23,0,0,0-2.89,3.17,2.49,2.49,0,0,0,1.66,3.19c4.18,1.48,6.81,4.74,9.21,8.12,3.21,4.5,3.06,9.41.61,14.14S188.36,445.86,182.67,445.75Zm-7.84-24.48c-.62-5.63-1-10.16,2.26-14.2s7.78-4.86,13.22-4.94c-6.06-3.05-12-1.87-15.88,2.65C170.45,409.46,170.32,414.83,174.83,421.27Zm-5.36,17.08c-.26-3.43-1.92-6.2-.13-8.8.89-1.29,1.08-1.94-.72-2.65-2.09-.82-2.13.41-2.46,1.76C165.26,432.29,166.33,435.23,169.47,438.35Zm16.18-9.25c-1,3.24-2,6.11-5.68,6.89,2.57,2.21,4.8,1.88,6.46-.11S188.19,431.53,185.65,429.1Z"/><path d="M420.56,355.86c.15,3.53-4.23,6.79-7.37,5.8-4.36-1.38-7.71-4.49-11.45-6.91a16.07,16.07,0,0,0-8.36-2.47c-7.6-.43-15.12,1.54-22.77.21-3.88-.67-3.14-2-2.06-4.64,2.75-6.64,7.77-7.93,14.36-7.49,6.82.44,7.15-.14,4.17-6.39-2.82-5.9-3.82-11.22,1.34-16.3,1.57-1.55,2.23-3.42,4.48,0,3.8,5.81,5.63,12.32,8.07,18.59a18.76,18.76,0,0,0,8.18,10.09c3.5,2.08,7.47,3.72,9.87,7.35C419.56,354.54,420.16,355.31,420.56,355.86ZM391.62,341.2c-4.35.43-8.2,1.45-11.88,1-6.33-.75-8,3.25-10,7.7,2.18.9,3.76.39,4.5-1.35,1.54-3.62,4.34-4.53,7.93-4.5,2.81,0,5.64-.57,8.44-.46,3.26.14,3.41-1,2.55-3.78-1.82-5.89-7.52-11.53-1.53-18.17.83-.92.21-2.47-.83-3s-1.56.81-2.16,1.52c-2.56,3-3.52,6-1.43,9.83C389,333.28,390,337,391.62,341.2Z"/><path d="M240.4,86.32c-2.15,3.75-4.37,6.26-5.4,9.44-.59,1.81-2.27,1.52-3.76,1.64A137.87,137.87,0,0,0,182.84,110c-4.36,2.07-8,3.7-11.94-.44-1.19-1.23-3.21-1.67-5.23-2.66C188.67,93.58,213.22,87.22,240.4,86.32Z"/><path d="M150.37,393.28c-2.34-.92-3.28.74-4.32,2.3-2.85,4.31-5.73,8.58-8.58,12.89-1.76,2.67-4.22,5-1.27,8.71,1.45,1.81-1.21,3.45-2.14,5.09s-2.12.83-3.45.36c-6.06-2.16-10.72-6.56-16-9.92-1.46-.92-1.17-2.39-.15-3.45,1.68-1.76,2.1-6,5.54-4.55,3.18,1.31,3.75-.63,4.91-2.31,2.91-4.26,5.84-8.5,8.64-12.83,1.38-2.12,3.66-3.71.57-7-2-2.18,1.87-4.75,3.35-7,1.25-1.88,2.71-.5,3.83.36,4.3,3.32,9.66,5.23,13.14,9.63,1,1.31,2.75,2.65.82,4.67C153.85,391.69,153.41,394.51,150.37,393.28Zm-9.66-5.93a5.73,5.73,0,0,0-1.14-1.41c-1.21-.76-1.76.25-2.3,1.06q-6.42,9.45-12.8,18.92c-.64.94-1.44,1.9,0,2.95s2.12,0,2.76-.95q6.23-9.3,12.39-18.63C140,388.74,140.25,388.15,140.71,387.35Zm.16-8.57a1.54,1.54,0,0,0-1.64-2c-2.16.42-2.6,2.67-3.6,4.23-.68,1.07.65,2.18,1.34,2.07C139.35,382.71,139.71,380.25,140.87,378.78ZM119,406a10.82,10.82,0,0,0-3.24,4.34,1.4,1.4,0,0,0,1.37,2.05c2.39-.18,2.7-2.64,3.75-4.18C121.69,407,120.37,406.55,119,406Z"/><path d="M262.36,88A149.18,149.18,0,0,1,326,111.82a8.13,8.13,0,0,1-.86,1.3c-6.21,6.41-6.21,6.39-14.21,1.94-11.34-6.32-23.22-11.34-36-13.86-5.08-1-9-2.78-10.35-8.21A33.81,33.81,0,0,0,262.36,88Z"/><path d="M232.51,435.89a67.67,67.67,0,0,1,0-7c.61-5.76.1-10.37-7.13-11.64-3.3-.57-1.7-4.19-1.78-6.46-.08-2.11,1.28-3.26,3.53-3.25,7.31,0,14.62-.12,21.93.11,3.59.11,7.2,8.11,5.09,10.9-1.08,1.42-2.82.89-4.2.74-3.32-.37-4.33,1-4.31,4.2.06,9-.26,17.94-.14,26.91.05,3.34-1.09,4.2-4.29,4.13-7.75-.15-8.8-1-8.8-8.69v-10Zm1.83,15.41c2.73-1.18,2.2-2.91,2.25-4.42.22-7.32.34-14.64.49-22,0-1.16.06-2.33,0-3.49s-.36-2-1.72-1.84c-1.15.16-1,1.18-1,1.94C234.33,431.46,234.34,441.38,234.34,451.3Zm16.34-39.8c0-.55,0-1.1,0-1.65-2.89-1-6-.41-9-.47-4.64-.09-9.29.05-13.93,0-2.5,0-2.57,1.62-2.47,3.34.06,1.22-.64,3.06,1,3.43,2.4.52,1.88-1.65,2.07-3,.32-2.38,2.18-1.6,3.48-1.62C238.19,411.45,244.43,411.5,250.68,411.5Z"/><path d="M352.2,76c-3-1.41-3.54.32-4.3,1.53-2.8,4.5-5.61,9-8.34,13.54-1.21,2-2.84,3.53,0,6.25,2.33,2.25-1.47,4.5-2.5,6.73-.82,1.74-2.4,1.12-3.8.23-3.78-2.38-7.69-4.58-11.41-7.07a6,6,0,0,1-1.37-9.27c.54-.64,1.15-1.7,1.88-1.33,4.84,2.49,5.41-1.87,7-4.33,2.2-3.31,4.07-6.85,6.31-10.14,1.78-2.62,2.8-5.12,1.25-8.24-1.25-2.5,1-4,2.18-5.59s2.76,0,3.88.7c4,2.36,7.89,4.89,11.8,7.4,1.7,1.1,3.78,2.44,2.17,4.68C355.58,73,355.29,76.88,352.2,76ZM335.42,93.6c1.26-.27,1.67-1.41,2.27-2.37,3.05-5,6.11-9.88,9.15-14.83C348,74.47,348.59,72.19,352,74c2.23,1.19,2.31-2.14,3.47-3.3a1.37,1.37,0,0,0-.56-2.39c-1.9-.85-2.2.78-2.89,1.8-.82,1.22-1.84,2.08-3.29,1.06s-2.45-.31-3.21.93c-3.81,6.24-7.58,12.49-11.39,18.73C333.13,92.43,333.57,93.3,335.42,93.6Zm-.29,9.74a7.25,7.25,0,0,0,3.14-4.66c.31-1.15-1-1.86-1.92-1.44-1.83.85-2.75,2.75-3.42,4.5C332.62,102.53,334.19,102.92,335.13,103.34Z"/><path d="M226.16,77.58c-3.91,1.06-4-3.18-4.84-6.1-.65-2.37-2.39-5.85,2.74-6,2-.08,1.37-2,1.32-3.18-.24-5.31-.61-10.62-.91-15.92a3.35,3.35,0,0,0-1.89-3c-3.34-2.09-3.61-5.85-3-9.22s4-2.44,6.19-2.4c4.15.08,8.52-1.4,12.42,1.61,2.91,2.24,3.22,7.6,0,9.19-1.87.91-1.89,2.09-1.82,3.54q.45,8.7,1,17.39a3.11,3.11,0,0,0,2.12,3.07c2.4.69,2.68,2.38,2.9,4.57.39,4-.8,5.77-5.14,5.53C234,76.38,230.67,77.13,226.16,77.58Zm8.59-12.94c1.16-.67.75-1.77.73-2.64-.12-4.8.12-9.59-.79-14.38-.35-1.88-1.37-5.23.88-5.79,5.39-1.35,2-4.42,3.07-7.13-2.9.72-1.3,3.51-3.27,3.63-3.71.22-3,2.83-2.89,5.05q.41,8.7,1,17.38C233.56,62.1,232.89,63.82,234.75,64.64Zm-11.63,9.9c1.38.58,1.8.92,2.22.92,3.3,0,6.61.08,9.9,0,6.35-.2,6.35-.25,4-7.78.36,6.16-3.51,4.58-6.38,4.81C229.82,72.7,226.68,72.38,223.12,74.54Z"/><path d="M191,236.89c2.1-2.54,6.56-4.38,4.23-7.69-3.91-5.56,1.49-4.89,3.39-5.76,9.22-4.24,19-3.66,28.9-2.76-3.68,2-9.62.79-10,7.28,0,.43-1.33.9-2.1,1.15a112.56,112.56,0,0,0-17.3,7.31C195.68,237.73,193.29,234.86,191,236.89Zm12.49-10.54c-.62-.59.77-2.7-1.83-2.22-2.44.46-2.72,2.08-2.5,4,.17,1.39-.05,3.58,2,3.25C203.69,231,203.24,228.49,203.52,226.35Z"/><path d="M173.68,249.52l9-6.85a1.67,1.67,0,0,1,2.59.29c.92,1.39-.67,1.66-1.32,2-3.2,1.9-6.47,3.66-9.72,5.47Z"/></symbol></defs><use width="477.33" height="477.3" xlink:href="#logo_test"/></svg>